<?xml version="1.0" encoding="UTF-8" standalone="no"?>
<svg
   xmlns:dc="http://purl.org/dc/elements/1.1/"
   xmlns:cc="http://creativecommons.org/ns#"
   xmlns:rdf="http://www.w3.org/1999/02/22-rdf-syntax-ns#"
   xmlns:svg="http://www.w3.org/2000/svg"
   xmlns="http://www.w3.org/2000/svg"
   xmlns:sodipodi="http://sodipodi.sourceforge.net/DTD/sodipodi-0.dtd"
   xmlns:inkscape="http://www.inkscape.org/namespaces/inkscape"
   viewBox="0 0 425.20 425.20"
   version="1.1"
   id="svg93"
   sodipodi:docname="part-to-whole.svg"
   inkscape:version="1.0.1 (3bc2e813f5, 2020-09-07)">
  <metadata
     id="metadata97">
    <rdf:RDF>
      <cc:Work
         rdf:about="">
        <dc:format>image/svg+xml</dc:format>
        <dc:type
           rdf:resource="http://purl.org/dc/dcmitype/StillImage" />
      </cc:Work>
    </rdf:RDF>
  </metadata>
  <sodipodi:namedview
     pagecolor="#ffffff"
     bordercolor="#666666"
     borderopacity="1"
     objecttolerance="10"
     gridtolerance="10"
     guidetolerance="10"
     inkscape:pageopacity="0"
     inkscape:pageshadow="2"
     inkscape:window-width="1366"
     inkscape:window-height="716"
     id="namedview95"
     showgrid="false"
     inkscape:zoom="1"
     inkscape:cx="212.60001"
     inkscape:cy="212.60001"
     inkscape:window-x="-8"
     inkscape:window-y="-8"
     inkscape:window-maximized="1"
     inkscape:current-layer="svg93" />
  <defs
     id="defs4">
    <style
       type="text/css"
       id="style2"><![CDATA[
    line, polyline, polygon, path, rect, circle {
      fill: none;
      stroke: #000000;
      stroke-linecap: round;
      stroke-linejoin: round;
      stroke-miterlimit: 10.00;
    }
  ]]></style>
  </defs>
  <rect
     width="94.837723%"
     height="100%"
     style="fill:#ffffff;stroke:none;stroke-width:0.973847"
     id="rect6"
     x="10.98"
     y="0"
     inkscape:export-xdpi="320.20001"
     inkscape:export-ydpi="320.20001" />
  <defs
     id="defs11">
    <clipPath
       id="cpMTAuOTh8NDE0LjIyfDQyNS4yMHwwLjAw">
      <rect
         x="10.98"
         y="0.00"
         width="403.25"
         height="425.20"
         id="rect8" />
    </clipPath>
  </defs>
  <rect
     x="10.98"
     y="0.00"
     width="403.25"
     height="425.20"
     style="stroke-width: 0.75; stroke: #D6DCEC; fill: #D6DCEC;"
     clip-path="url(#cpMTAuOTh8NDE0LjIyfDQyNS4yMHwwLjAw)"
     id="rect13" />
  <defs
     id="defs18">
    <clipPath
       id="cpMC4wMHw0MjUuMjB8NDI1LjIwfDAuMDA=">
      <rect
         x="0.00"
         y="0.00"
         width="425.20"
         height="425.20"
         id="rect15" />
    </clipPath>
  </defs>
  <defs
     id="defs23">
    <clipPath
       id="cpMzUuODh8Mzg5LjMyfDQwMC40OXw0Ny4wNg==">
      <rect
         x="35.88"
         y="47.06"
         width="353.43"
         height="353.43"
         id="rect20" />
    </clipPath>
  </defs>
  <rect
     x="35.88"
     y="47.06"
     width="353.43"
     height="353.43"
     style="stroke-width: 0.75; stroke: #D6DCEC; fill: #D6DCEC;"
     clip-path="url(#cpMzUuODh8Mzg5LjMyfDQwMC40OXw0Ny4wNg==)"
     id="rect25" />
  <polygon
     points="212.60,223.78 212.60,218.90 212.60,214.03 212.60,209.15 212.60,204.28 212.60,199.40 212.60,194.53 212.60,189.65 212.60,184.78 212.60,179.90 212.60,175.03 212.60,170.15 212.60,165.28 212.60,160.40 212.60,155.53 212.60,150.65 212.60,145.78 212.60,140.90 212.60,136.03 212.60,131.15 212.60,126.28 212.60,121.40 212.60,116.53 212.60,111.65 212.60,106.78 212.60,101.90 212.60,97.03 212.60,92.15 212.60,87.28 212.60,82.40 207.81,82.48 203.03,82.73 198.27,83.13 193.51,83.70 188.78,84.42 184.08,85.31 179.41,86.35 174.78,87.56 170.19,88.91 165.65,90.43 161.16,92.09 156.73,93.91 152.37,95.87 148.08,97.99 143.85,100.24 139.71,102.64 135.65,105.18 131.68,107.85 127.81,110.65 124.03,113.59 120.35,116.65 116.77,119.83 113.31,123.13 109.96,126.55 106.73,130.08 103.62,133.72 100.63,137.46 97.78,141.30 95.05,145.23 92.46,149.26 90.01,153.37 87.69,157.56 85.52,161.82 83.50,166.16 81.62,170.56 79.90,175.02 78.32,179.54 76.90,184.11 75.64,188.73 74.53,193.38 73.58,198.07 72.79,202.80 72.16,207.54 71.69,212.30 71.38,217.08 71.24,221.86 71.25,226.65 71.43,231.43 71.77,236.20 72.27,240.96 72.94,245.70 73.76,250.42 74.74,255.10 75.88,259.75 77.17,264.36 78.63,268.92 80.23,273.42 81.99,277.88 83.89,282.27 85.95,286.59 88.14,290.84 90.49,295.01 92.97,299.11 95.59,303.11 98.34,307.03 101.22,310.85 104.23,314.57 107.37,318.18 110.62,321.69 114.00,325.09 117.48,328.37 121.08,331.52 124.77,334.56 128.57,337.47 132.47,340.25 136.46,342.89 140.53,345.40 144.69,347.77 148.93,350.00 153.24,352.08 157.61,354.02 162.05,355.80 166.55,357.44 171.10,358.92 175.70,360.25 180.34,361.42 185.02,362.43 189.73,363.29 194.46,363.98 199.22,364.51 203.99,364.89 208.77,365.10 213.56,365.15 218.34,365.03 223.12,364.76 227.88,364.32 232.63,363.72 237.36,362.96 242.05,362.05 246.72,360.97 251.34,359.74 255.92,358.35 260.45,356.80 264.93,355.11 269.34,353.26 273.69,351.27 277.97,349.13 282.18,346.84 286.30,344.42 290.34,341.85 294.30,339.15 298.15,336.32 301.91,333.36 305.57,330.28 309.12,327.07 312.56,323.74 315.89,320.30 319.10,316.75 322.18,313.09 325.14,309.33 327.98,305.47 330.68,301.52 333.24,297.48 335.66,293.35 337.95,289.15 340.09,284.87 342.08,280.52 343.93,276.10 345.63,271.63 347.17,267.10 348.56,262.52 349.79,257.89 350.87,253.23 351.79,248.53 352.55,243.81 353.14,239.06 353.58,234.29 353.86,229.52 353.97,224.73 353.92,219.95 353.71,215.17 353.34,210.39 352.80,205.64 352.11,200.90 347.30,201.69 342.49,202.48 337.68,203.27 332.87,204.06 328.06,204.85 323.24,205.64 318.43,206.42 313.62,207.21 308.81,208.00 304.00,208.79 299.19,209.58 294.38,210.37 289.57,211.16 284.76,211.95 279.95,212.73 275.14,213.52 270.33,214.31 265.52,215.10 260.71,215.89 255.89,216.68 251.08,217.47 246.27,218.25 241.46,219.04 236.65,219.83 231.84,220.62 227.03,221.41 222.22,222.20 217.41,222.99 212.60,223.78 212.60,223.78 "
     style="stroke-width: 1.07; stroke: none; fill: #141924;"
     clip-path="url(#cpMzUuODh8Mzg5LjMyfDQwMC40OXw0Ny4wNg==)"
     id="polygon27" />
  <polygon
     points="212.60,223.78 217.41,222.99 222.22,222.20 227.03,221.41 231.84,220.62 236.65,219.83 241.46,219.04 246.27,218.25 251.08,217.47 255.89,216.68 260.71,215.89 265.52,215.10 270.33,214.31 275.14,213.52 279.95,212.73 284.76,211.95 289.57,211.16 294.38,210.37 299.19,209.58 304.00,208.79 308.81,208.00 313.62,207.21 318.43,206.42 323.24,205.64 328.06,204.85 332.87,204.06 337.68,203.27 342.49,202.48 347.30,201.69 352.11,200.90 351.24,196.13 350.21,191.38 349.02,186.67 347.66,182.01 346.15,177.40 344.48,172.84 342.65,168.34 340.67,163.91 338.54,159.54 336.26,155.26 333.83,151.05 331.26,146.93 328.55,142.90 325.71,138.97 322.73,135.13 319.62,131.40 316.38,127.78 313.03,124.27 309.55,120.88 305.96,117.61 302.26,114.47 298.45,111.46 294.54,108.57 290.54,105.83 286.44,103.22 282.26,100.76 277.99,98.44 273.65,96.26 269.23,94.24 264.75,92.37 260.21,90.66 255.61,89.10 250.96,87.71 246.26,86.47 241.53,85.39 236.76,84.48 231.96,83.73 227.14,83.15 222.30,82.74 217.45,82.49 212.60,82.40 212.60,87.28 212.60,92.15 212.60,97.03 212.60,101.90 212.60,106.78 212.60,111.65 212.60,116.53 212.60,121.40 212.60,126.28 212.60,131.15 212.60,136.03 212.60,140.90 212.60,145.78 212.60,150.65 212.60,155.53 212.60,160.40 212.60,165.28 212.60,170.15 212.60,175.03 212.60,179.90 212.60,184.78 212.60,189.65 212.60,194.53 212.60,199.40 212.60,204.28 212.60,209.15 212.60,214.03 212.60,218.90 212.60,223.78 212.60,223.78 "
     style="stroke-width: 1.07; stroke: none; fill: #163FA7;"
     clip-path="url(#cpMzUuODh8Mzg5LjMyfDQwMC40OXw0Ny4wNg==)"
     id="polygon29" />
  <polyline
     points="212.60,223.78 212.60,218.90 212.60,214.03 212.60,209.15 212.60,204.28 212.60,199.40 212.60,194.53 212.60,189.65 212.60,184.78 212.60,179.90 212.60,175.03 212.60,170.15 212.60,165.28 212.60,160.40 212.60,155.53 212.60,150.65 212.60,145.78 212.60,140.90 212.60,136.03 212.60,131.15 212.60,126.28 212.60,121.40 212.60,116.53 212.60,111.65 212.60,106.78 212.60,101.90 212.60,97.03 212.60,92.15 212.60,87.28 212.60,82.40 "
     style="stroke-width: 3.20; stroke: #D6DCEC; stroke-linecap: butt;"
     clip-path="url(#cpMzUuODh8Mzg5LjMyfDQwMC40OXw0Ny4wNg==)"
     id="polyline31" />
  <polyline
     points="212.60,223.78 212.60,218.90 212.60,214.03 212.60,209.15 212.60,204.28 212.60,199.40 212.60,194.53 212.60,189.65 212.60,184.78 212.60,179.90 212.60,175.03 212.60,170.15 212.60,165.28 212.60,160.40 212.60,155.53 212.60,150.65 212.60,145.78 212.60,140.90 212.60,136.03 212.60,131.15 212.60,126.28 212.60,121.40 212.60,116.53 212.60,111.65 212.60,106.78 212.60,101.90 212.60,97.03 212.60,92.15 212.60,87.28 212.60,82.40 "
     style="stroke:#d6dcec;stroke-width:3.2;stroke-linecap:butt"
     clip-path="url(#cpMzUuODh8Mzg5LjMyfDQwMC40OXw0Ny4wNg==)"
     id="polyline33"
     transform="matrix(1,0,0,1.0104329,0,-0.85965928)" />
  <polyline
     points="212.60,223.78 217.41,222.99 222.22,222.20 227.03,221.41 231.84,220.62 236.65,219.83 241.46,219.04 246.27,218.25 251.08,217.47 255.89,216.68 260.71,215.89 265.52,215.10 270.33,214.31 275.14,213.52 279.95,212.73 284.76,211.95 289.57,211.16 294.38,210.37 299.19,209.58 304.00,208.79 308.81,208.00 313.62,207.21 318.43,206.42 323.24,205.64 328.06,204.85 332.87,204.06 337.68,203.27 342.49,202.48 347.30,201.69 352.11,200.90 "
     style="stroke-width: 3.20; stroke: #D6DCEC; stroke-linecap: butt;"
     clip-path="url(#cpMzUuODh8Mzg5LjMyfDQwMC40OXw0Ny4wNg==)"
     id="polyline35" />
  <polyline
     points="212.60,223.78 217.41,222.99 222.22,222.20 227.03,221.41 231.84,220.62 236.65,219.83 241.46,219.04 246.27,218.25 251.08,217.47 255.89,216.68 260.71,215.89 265.52,215.10 270.33,214.31 275.14,213.52 279.95,212.73 284.76,211.95 289.57,211.16 294.38,210.37 299.19,209.58 304.00,208.79 308.81,208.00 313.62,207.21 318.43,206.42 323.24,205.64 328.06,204.85 332.87,204.06 337.68,203.27 342.49,202.48 347.30,201.69 352.11,200.90 "
     style="stroke-width: 3.20; stroke: #D6DCEC; stroke-linecap: butt;"
     clip-path="url(#cpMzUuODh8Mzg5LjMyfDQwMC40OXw0Ny4wNg==)"
     id="polyline37" />
  <g
     clip-path="url(#cpMzUuODh8Mzg5LjMyfDQwMC40OXw0Ny4wNg==)"
     id="g41">
    <text
       x="128.40"
       y="258.29"
       style="font-size: 14.23px; font-weight: bold; fill: #D6DCEC; font-family: Fira Sans Medium;"
       textLength="51.38px"
       lengthAdjust="spacingAndGlyphs"
       id="text39">English</text>
  </g>
  <g
     clip-path="url(#cpMzUuODh8Mzg5LjMyfDQwMC40OXw0Ny4wNg==)"
     id="g45">
    <text
       x="123.26"
       y="278.78"
       style="font-size: 14.23px; font-weight: bold; fill: #D6DCEC; font-family: Fira Sans Medium;"
       textLength="61.67px"
       lengthAdjust="spacingAndGlyphs"
       id="text43">45 books</text>
  </g>
  <g
     clip-path="url(#cpMzUuODh8Mzg5LjMyfDQwMC40OXw0Ny4wNg==)"
     id="g49">
    <text
       x="227.71"
       y="162.35"
       style="font-size: 14.23px; font-weight: bold; fill: #D6DCEC; font-family: Fira Sans Medium;"
       textLength="55.34px"
       lengthAdjust="spacingAndGlyphs"
       id="text47">Spanish</text>
  </g>
  <g
     clip-path="url(#cpMzUuODh8Mzg5LjMyfDQwMC40OXw0Ny4wNg==)"
     id="g53">
    <text
       x="224.54"
       y="182.84"
       style="font-size: 14.23px; font-weight: bold; fill: #D6DCEC; font-family: Fira Sans Medium;"
       textLength="61.67px"
       lengthAdjust="spacingAndGlyphs"
       id="text51">13 books</text>
  </g>
  <defs
     id="defs59">
    <clipPath
       id="clipPath57">
      <rect
         x="0.00"
         y="0.00"
         width="425.20"
         height="425.20"
         id="rect55" />
    </clipPath>
  </defs>
  <g
     clip-path="url(#cpMC4wMHw0MjUuMjB8NDI1LjIwfDAuMDA=)"
     id="g63">
    <text
       x="48.00"
       y="43.27"
       style="font-size: 18.00px; fill: #141924; font-family: Fira Sans Medium;"
       textLength="329.20px"
       lengthAdjust="spacingAndGlyphs"
       id="text61">In Which Language Do I Prefer Reading?</text>
  </g>
  <g
     clip-path="url(#cpMC4wMHw0MjUuMjB8NDI1LjIwfDAuMDA=)"
     id="g67">
    <text
       x="133.89"
       y="413.13"
       style="font-size: 10.00px; fill: #4D65A8; font-family: Fira Sans Medium;"
       textLength="25.01px"
       lengthAdjust="spacingAndGlyphs"
       id="text65">Made</text>
  </g>
  <g
     clip-path="url(#cpMC4wMHw0MjUuMjB8NDI1LjIwfDAuMDA=)"
     id="g71">
    <text
       x="161.69"
       y="413.13"
       style="font-size: 10.00px; fill: #4D65A8; font-family: Fira Sans Medium;"
       textLength="10.56px"
       lengthAdjust="spacingAndGlyphs"
       id="text69">by</text>
  </g>
  <g
     clip-path="url(#cpMC4wMHw0MjUuMjB8NDI1LjIwfDAuMDA=)"
     id="g75">
    <text
       x="175.03"
       y="413.13"
       style="font-size: 10.00px; font-weight: bold; fill: #4D65A8; font-family: Fira Sans Medium;"
       textLength="45.32px"
       lengthAdjust="spacingAndGlyphs"
       id="text73">@luisfreii</text>
  </g>
  <g
     clip-path="url(#cpMC4wMHw0MjUuMjB8NDI1LjIwfDAuMDA=)"
     id="g79">
    <text
       x="223.12"
       y="413.13"
       style="font-size: 10.00px; fill: #4D65A8; font-family: Fira Sans Medium;"
       textLength="2.60px"
       lengthAdjust="spacingAndGlyphs"
       id="text77">|</text>
  </g>
  <g
     clip-path="url(#cpMC4wMHw0MjUuMjB8NDI1LjIwfDAuMDA=)"
     id="g83">
    <text
       x="228.50"
       y="413.13"
       style="font-size: 10.00px; fill: #4D65A8; font-family: Fira Sans Medium;"
       textLength="13.33px"
       lengthAdjust="spacingAndGlyphs"
       id="text81">My</text>
  </g>
  <g
     clip-path="url(#cpMC4wMHw0MjUuMjB8NDI1LjIwfDAuMDA=)"
     id="g87">
    <text
       x="244.61"
       y="413.13"
       style="font-size: 10.00px; fill: #4D65A8; font-family: Fira Sans Medium;"
       textLength="22.79px"
       lengthAdjust="spacingAndGlyphs"
       id="text85">Book</text>
  </g>
  <g
     clip-path="url(#cpMC4wMHw0MjUuMjB8NDI1LjIwfDAuMDA=)"
     id="g91">
    <text
       x="270.18"
       y="413.13"
       style="font-size: 10.00px; fill: #4D65A8; font-family: Fira Sans Medium;"
       textLength="21.12px"
       lengthAdjust="spacingAndGlyphs"
       id="text89">Data</text>
  </g>
</svg>
