<?xml version="1.0" encoding="UTF-8" standalone="no"?>
<svg
   xmlns:dc="http://purl.org/dc/elements/1.1/"
   xmlns:cc="http://creativecommons.org/ns#"
   xmlns:rdf="http://www.w3.org/1999/02/22-rdf-syntax-ns#"
   xmlns:svg="http://www.w3.org/2000/svg"
   xmlns="http://www.w3.org/2000/svg"
   xmlns:sodipodi="http://sodipodi.sourceforge.net/DTD/sodipodi-0.dtd"
   xmlns:inkscape="http://www.inkscape.org/namespaces/inkscape"
   viewBox="0 0 510.24 453.54"
   version="1.1"
   id="svg358"
   sodipodi:docname="17.Pop Culture.svg"
   inkscape:export-filename="C:\Users\Personal\Desktop\RProjects\#30DayChartChallenge\D17.Pop Culture\17.Pop Culture.png"
   inkscape:export-xdpi="320.20001"
   inkscape:export-ydpi="320.20001"
   inkscape:version="1.0.1 (3bc2e813f5, 2020-09-07)">
  <metadata
     id="metadata362">
    <rdf:RDF>
      <cc:Work
         rdf:about="">
        <dc:format>image/svg+xml</dc:format>
        <dc:type
           rdf:resource="http://purl.org/dc/dcmitype/StillImage" />
      </cc:Work>
    </rdf:RDF>
  </metadata>
  <sodipodi:namedview
     pagecolor="#ffffff"
     bordercolor="#666666"
     borderopacity="1"
     objecttolerance="10"
     gridtolerance="10"
     guidetolerance="10"
     inkscape:pageopacity="0"
     inkscape:pageshadow="2"
     inkscape:window-width="1366"
     inkscape:window-height="716"
     id="namedview360"
     showgrid="false"
     inkscape:zoom="1.2861282"
     inkscape:cx="315.29502"
     inkscape:cy="234.83607"
     inkscape:window-x="-8"
     inkscape:window-y="-8"
     inkscape:window-maximized="1"
     inkscape:current-layer="svg358" />
  <defs
     id="defs4">
    <style
       type="text/css"
       id="style2"><![CDATA[
    line, polyline, polygon, path, rect, circle {
      fill: none;
      stroke: #000000;
      stroke-linecap: round;
      stroke-linejoin: round;
      stroke-miterlimit: 10.00;
    }
  ]]></style>
  </defs>
  <rect
     width="100%"
     height="100%"
     style="stroke: none; fill: #FFFFFF;"
     id="rect6" />
  <rect
     x="0.00"
     y="0.00"
     width="510.24"
     height="453.54"
     style="stroke-width: 1.07; stroke: #FFFFFF; fill: #F5F5F5;"
     id="rect8" />
  <defs
     id="defs13">
    <clipPath
       id="cpNDEuMjZ8NDk1LjI5fDM5OC4wM3w5MC4xNQ==">
      <rect
         x="41.26"
         y="90.15"
         width="454.03"
         height="307.88"
         id="rect10" />
    </clipPath>
  </defs>
  <rect
     x="41.26"
     y="90.15"
     width="454.03"
     height="307.88"
     style="stroke-width: 1.07; stroke: none; fill: #F5F5F5;"
     clip-path="url(#cpNDEuMjZ8NDk1LjI5fDM5OC4wM3w5MC4xNQ==)"
     id="rect15" />
  <polyline
     points="41.26,388.87 495.29,388.87 "
     style="stroke-width: 1.07; stroke: #EBEBEB; stroke-linecap: butt;"
     clip-path="url(#cpNDEuMjZ8NDk1LjI5fDM5OC4wM3w5MC4xNQ==)"
     id="polyline17" />
  <polyline
     points="41.26,292.35 495.29,292.35 "
     style="stroke-width: 1.07; stroke: #EBEBEB; stroke-linecap: butt;"
     clip-path="url(#cpNDEuMjZ8NDk1LjI5fDM5OC4wM3w5MC4xNQ==)"
     id="polyline19" />
  <polyline
     points="41.26,195.84 495.29,195.84 "
     style="stroke-width: 1.07; stroke: #EBEBEB; stroke-linecap: butt;"
     clip-path="url(#cpNDEuMjZ8NDk1LjI5fDM5OC4wM3w5MC4xNQ==)"
     id="polyline21" />
  <polyline
     points="41.26,99.32 495.29,99.32 "
     style="stroke-width: 1.07; stroke: #EBEBEB; stroke-linecap: butt;"
     clip-path="url(#cpNDEuMjZ8NDk1LjI5fDM5OC4wM3w5MC4xNQ==)"
     id="polyline23" />
  <circle
     cx="61.90"
     cy="142.75"
     r="3.33"
     style="stroke-width: 0.71; stroke: #369266; stroke-opacity: 0.90; fill: #369266; fill-opacity: 0.90;"
     clip-path="url(#cpNDEuMjZ8NDk1LjI5fDM5OC4wM3w5MC4xNQ==)"
     id="circle25" />
  <circle
     cx="61.90"
     cy="157.23"
     r="2.98"
     style="stroke-width: 0.71; stroke: #31B271; stroke-opacity: 0.90; fill: #31B271; fill-opacity: 0.90;"
     clip-path="url(#cpNDEuMjZ8NDk1LjI5fDM5OC4wM3w5MC4xNQ==)"
     id="circle27" />
  <circle
     cx="61.90"
     cy="162.06"
     r="3.16"
     style="stroke-width: 0.71; stroke: #33A76D; stroke-opacity: 0.90; fill: #33A76D; fill-opacity: 0.90;"
     clip-path="url(#cpNDEuMjZ8NDk1LjI5fDM5OC4wM3w5MC4xNQ==)"
     id="circle29" />
  <circle
     cx="61.90"
     cy="157.23"
     r="2.52"
     style="stroke-width: 0.71; stroke: #31B271; stroke-opacity: 0.90; fill: #31B271; fill-opacity: 0.90;"
     clip-path="url(#cpNDEuMjZ8NDk1LjI5fDM5OC4wM3w5MC4xNQ==)"
     id="circle31" />
  <circle
     cx="61.90"
     cy="142.75"
     r="2.52"
     style="stroke-width: 0.71; stroke: #2FB773; stroke-opacity: 0.90; fill: #2FB773; fill-opacity: 0.90;"
     clip-path="url(#cpNDEuMjZ8NDk1LjI5fDM5OC4wM3w5MC4xNQ==)"
     id="circle33" />
  <circle
     cx="61.90"
     cy="137.93"
     r="2.52"
     style="stroke-width: 0.71; stroke: #2BC277; stroke-opacity: 0.90; fill: #2BC277; fill-opacity: 0.90;"
     clip-path="url(#cpNDEuMjZ8NDk1LjI5fDM5OC4wM3w5MC4xNQ==)"
     id="circle35" />
  <circle
     cx="61.90"
     cy="137.93"
     r="2.77"
     style="stroke-width: 0.71; stroke: #33A76D; stroke-opacity: 0.90; fill: #33A76D; fill-opacity: 0.90;"
     clip-path="url(#cpNDEuMjZ8NDk1LjI5fDM5OC4wM3w5MC4xNQ==)"
     id="circle37" />
  <circle
     cx="61.90"
     cy="147.58"
     r="2.52"
     style="stroke-width: 0.71; stroke: #34A26C; stroke-opacity: 0.90; fill: #34A26C; fill-opacity: 0.90;"
     clip-path="url(#cpNDEuMjZ8NDk1LjI5fDM5OC4wM3w5MC4xNQ==)"
     id="circle39" />
  <circle
     cx="61.90"
     cy="118.62"
     r="3.16"
     style="stroke-width: 0.71; stroke: #32AC6F; stroke-opacity: 0.90; fill: #32AC6F; fill-opacity: 0.90;"
     clip-path="url(#cpNDEuMjZ8NDk1LjI5fDM5OC4wM3w5MC4xNQ==)"
     id="circle41" />
  <circle
     cx="61.90"
     cy="123.45"
     r="3.16"
     style="stroke-width: 0.71; stroke: #2BC277; stroke-opacity: 0.90; fill: #2BC277; fill-opacity: 0.90;"
     clip-path="url(#cpNDEuMjZ8NDk1LjI5fDM5OC4wM3w5MC4xNQ==)"
     id="circle43" />
  <circle
     cx="120.86"
     cy="157.23"
     r="3.16"
     style="stroke-width: 0.71; stroke: #2BC277; stroke-opacity: 0.90; fill: #2BC277; fill-opacity: 0.90;"
     clip-path="url(#cpNDEuMjZ8NDk1LjI5fDM5OC4wM3w5MC4xNQ==)"
     id="circle45" />
  <circle
     cx="120.86"
     cy="171.71"
     r="2.20"
     style="stroke-width: 0.71; stroke: #2DBD75; stroke-opacity: 0.90; fill: #2DBD75; fill-opacity: 0.90;"
     clip-path="url(#cpNDEuMjZ8NDk1LjI5fDM5OC4wM3w5MC4xNQ==)"
     id="circle47" />
  <circle
     cx="120.86"
     cy="157.23"
     r="2.20"
     style="stroke-width: 0.71; stroke: #2BC277; stroke-opacity: 0.90; fill: #2BC277; fill-opacity: 0.90;"
     clip-path="url(#cpNDEuMjZ8NDk1LjI5fDM5OC4wM3w5MC4xNQ==)"
     id="circle49" />
  <circle
     cx="120.86"
     cy="157.23"
     r="1.42"
     style="stroke-width: 0.71; stroke: #26CD7B; stroke-opacity: 0.90; fill: #26CD7B; fill-opacity: 0.90;"
     clip-path="url(#cpNDEuMjZ8NDk1LjI5fDM5OC4wM3w5MC4xNQ==)"
     id="circle51" />
  <circle
     cx="120.86"
     cy="157.23"
     r="2.20"
     style="stroke-width: 0.71; stroke: #2FB773; stroke-opacity: 0.90; fill: #2FB773; fill-opacity: 0.90;"
     clip-path="url(#cpNDEuMjZ8NDk1LjI5fDM5OC4wM3w5MC4xNQ==)"
     id="circle53" />
  <circle
     cx="120.86"
     cy="142.75"
     r="2.20"
     style="stroke-width: 0.71; stroke: #2DBD75; stroke-opacity: 0.90; fill: #2DBD75; fill-opacity: 0.90;"
     clip-path="url(#cpNDEuMjZ8NDk1LjI5fDM5OC4wM3w5MC4xNQ==)"
     id="circle55" />
  <circle
     cx="120.86"
     cy="152.40"
     r="1.42"
     style="stroke-width: 0.71; stroke: #31B271; stroke-opacity: 0.90; fill: #31B271; fill-opacity: 0.90;"
     clip-path="url(#cpNDEuMjZ8NDk1LjI5fDM5OC4wM3w5MC4xNQ==)"
     id="circle57" />
  <circle
     cx="120.86"
     cy="157.23"
     r="2.20"
     style="stroke-width: 0.71; stroke: #2DBD75; stroke-opacity: 0.90; fill: #2DBD75; fill-opacity: 0.90;"
     clip-path="url(#cpNDEuMjZ8NDk1LjI5fDM5OC4wM3w5MC4xNQ==)"
     id="circle59" />
  <circle
     cx="120.86"
     cy="113.80"
     r="1.42"
     style="stroke-width: 0.71; stroke: #2FB773; stroke-opacity: 0.90; fill: #2FB773; fill-opacity: 0.90;"
     clip-path="url(#cpNDEuMjZ8NDk1LjI5fDM5OC4wM3w5MC4xNQ==)"
     id="circle61" />
  <circle
     cx="120.86"
     cy="128.28"
     r="1.42"
     style="stroke-width: 0.71; stroke: #368762; stroke-opacity: 0.90; fill: #368762; fill-opacity: 0.90;"
     clip-path="url(#cpNDEuMjZ8NDk1LjI5fDM5OC4wM3w5MC4xNQ==)"
     id="circle63" />
  <circle
     cx="179.83"
     cy="157.23"
     r="4.12"
     style="stroke-width: 0.71; stroke: #2FB773; stroke-opacity: 0.90; fill: #2FB773; fill-opacity: 0.90;"
     clip-path="url(#cpNDEuMjZ8NDk1LjI5fDM5OC4wM3w5MC4xNQ==)"
     id="circle65" />
  <circle
     cx="179.83"
     cy="166.88"
     r="3.33"
     style="stroke-width: 0.71; stroke: #31B271; stroke-opacity: 0.90; fill: #31B271; fill-opacity: 0.90;"
     clip-path="url(#cpNDEuMjZ8NDk1LjI5fDM5OC4wM3w5MC4xNQ==)"
     id="circle67" />
  <circle
     cx="179.83"
     cy="152.40"
     r="3.16"
     style="stroke-width: 0.71; stroke: #31B271; stroke-opacity: 0.90; fill: #31B271; fill-opacity: 0.90;"
     clip-path="url(#cpNDEuMjZ8NDk1LjI5fDM5OC4wM3w5MC4xNQ==)"
     id="circle69" />
  <circle
     cx="179.83"
     cy="118.62"
     r="2.98"
     style="stroke-width: 0.71; stroke: #2BC277; stroke-opacity: 0.90; fill: #2BC277; fill-opacity: 0.90;"
     clip-path="url(#cpNDEuMjZ8NDk1LjI5fDM5OC4wM3w5MC4xNQ==)"
     id="circle71" />
  <circle
     cx="179.83"
     cy="147.58"
     r="3.33"
     style="stroke-width: 0.71; stroke: #32AC6F; stroke-opacity: 0.90; fill: #32AC6F; fill-opacity: 0.90;"
     clip-path="url(#cpNDEuMjZ8NDk1LjI5fDM5OC4wM3w5MC4xNQ==)"
     id="circle73" />
  <circle
     cx="179.83"
     cy="157.23"
     r="2.77"
     style="stroke-width: 0.71; stroke: #2BC277; stroke-opacity: 0.90; fill: #2BC277; fill-opacity: 0.90;"
     clip-path="url(#cpNDEuMjZ8NDk1LjI5fDM5OC4wM3w5MC4xNQ==)"
     id="circle75" />
  <circle
     cx="179.83"
     cy="162.06"
     r="2.77"
     style="stroke-width: 0.71; stroke: #33A76D; stroke-opacity: 0.90; fill: #33A76D; fill-opacity: 0.90;"
     clip-path="url(#cpNDEuMjZ8NDk1LjI5fDM5OC4wM3w5MC4xNQ==)"
     id="circle77" />
  <circle
     cx="179.83"
     cy="147.58"
     r="3.33"
     style="stroke-width: 0.71; stroke: #31B271; stroke-opacity: 0.90; fill: #31B271; fill-opacity: 0.90;"
     clip-path="url(#cpNDEuMjZ8NDk1LjI5fDM5OC4wM3w5MC4xNQ==)"
     id="circle79" />
  <circle
     cx="179.83"
     cy="104.15"
     r="3.16"
     style="stroke-width: 0.71; stroke: #26CD7B; stroke-opacity: 0.90; fill: #26CD7B; fill-opacity: 0.90;"
     clip-path="url(#cpNDEuMjZ8NDk1LjI5fDM5OC4wM3w5MC4xNQ==)"
     id="circle81" />
  <circle
     cx="179.83"
     cy="137.93"
     r="3.16"
     style="stroke-width: 0.71; stroke: #368C64; stroke-opacity: 0.90; fill: #368C64; fill-opacity: 0.90;"
     clip-path="url(#cpNDEuMjZ8NDk1LjI5fDM5OC4wM3w5MC4xNQ==)"
     id="circle83" />
  <circle
     cx="238.79"
     cy="142.75"
     r="4.33"
     style="stroke-width: 0.71; stroke: #33A76D; stroke-opacity: 0.90; fill: #33A76D; fill-opacity: 0.90;"
     clip-path="url(#cpNDEuMjZ8NDk1LjI5fDM5OC4wM3w5MC4xNQ==)"
     id="circle85" />
  <circle
     cx="238.79"
     cy="113.80"
     r="3.88"
     style="stroke-width: 0.71; stroke: #29C879; stroke-opacity: 0.90; fill: #29C879; fill-opacity: 0.90;"
     clip-path="url(#cpNDEuMjZ8NDk1LjI5fDM5OC4wM3w5MC4xNQ==)"
     id="circle87" />
  <circle
     cx="238.79"
     cy="152.40"
     r="3.62"
     style="stroke-width: 0.71; stroke: #32AC6F; stroke-opacity: 0.90; fill: #32AC6F; fill-opacity: 0.90;"
     clip-path="url(#cpNDEuMjZ8NDk1LjI5fDM5OC4wM3w5MC4xNQ==)"
     id="circle89" />
  <circle
     cx="238.79"
     cy="157.23"
     r="3.62"
     style="stroke-width: 0.71; stroke: #2FB773; stroke-opacity: 0.90; fill: #2FB773; fill-opacity: 0.90;"
     clip-path="url(#cpNDEuMjZ8NDk1LjI5fDM5OC4wM3w5MC4xNQ==)"
     id="circle91" />
  <circle
     cx="238.79"
     cy="162.06"
     r="3.48"
     style="stroke-width: 0.71; stroke: #2BC277; stroke-opacity: 0.90; fill: #2BC277; fill-opacity: 0.90;"
     clip-path="url(#cpNDEuMjZ8NDk1LjI5fDM5OC4wM3w5MC4xNQ==)"
     id="circle93" />
  <circle
     cx="238.79"
     cy="113.80"
     r="3.16"
     style="stroke-width: 0.71; stroke: #26CD7B; stroke-opacity: 0.90; fill: #26CD7B; fill-opacity: 0.90;"
     clip-path="url(#cpNDEuMjZ8NDk1LjI5fDM5OC4wM3w5MC4xNQ==)"
     id="circle95" />
  <circle
     cx="238.79"
     cy="142.75"
     r="2.77"
     style="stroke-width: 0.71; stroke: #26CD7B; stroke-opacity: 0.90; fill: #26CD7B; fill-opacity: 0.90;"
     clip-path="url(#cpNDEuMjZ8NDk1LjI5fDM5OC4wM3w5MC4xNQ==)"
     id="circle97" />
  <circle
     cx="238.79"
     cy="113.80"
     r="2.98"
     style="stroke-width: 0.71; stroke: #29C879; stroke-opacity: 0.90; fill: #29C879; fill-opacity: 0.90;"
     clip-path="url(#cpNDEuMjZ8NDk1LjI5fDM5OC4wM3w5MC4xNQ==)"
     id="circle99" />
  <circle
     cx="238.79"
     cy="118.62"
     r="2.77"
     style="stroke-width: 0.71; stroke: #26CD7B; stroke-opacity: 0.90; fill: #26CD7B; fill-opacity: 0.90;"
     clip-path="url(#cpNDEuMjZ8NDk1LjI5fDM5OC4wM3w5MC4xNQ==)"
     id="circle101" />
  <circle
     cx="238.79"
     cy="113.80"
     r="2.52"
     style="stroke-width: 0.71; stroke: #368260; stroke-opacity: 0.90; fill: #368260; fill-opacity: 0.90;"
     clip-path="url(#cpNDEuMjZ8NDk1LjI5fDM5OC4wM3w5MC4xNQ==)"
     id="circle103" />
  <circle
     cx="297.76"
     cy="171.71"
     r="4.99"
     style="stroke-width: 0.71; stroke: #2BC277; stroke-opacity: 0.90; fill: #2BC277; fill-opacity: 0.90;"
     clip-path="url(#cpNDEuMjZ8NDk1LjI5fDM5OC4wM3w5MC4xNQ==)"
     id="circle105" />
  <circle
     cx="297.76"
     cy="171.71"
     r="4.12"
     style="stroke-width: 0.71; stroke: #31B271; stroke-opacity: 0.90; fill: #31B271; fill-opacity: 0.90;"
     clip-path="url(#cpNDEuMjZ8NDk1LjI5fDM5OC4wM3w5MC4xNQ==)"
     id="circle107" />
  <circle
     cx="297.76"
     cy="171.71"
     r="4.12"
     style="stroke-width: 0.71; stroke: #359C6A; stroke-opacity: 0.90; fill: #359C6A; fill-opacity: 0.90;"
     clip-path="url(#cpNDEuMjZ8NDk1LjI5fDM5OC4wM3w5MC4xNQ==)"
     id="circle109" />
  <circle
     cx="297.76"
     cy="162.06"
     r="4.00"
     style="stroke-width: 0.71; stroke: #26CD7B; stroke-opacity: 0.90; fill: #26CD7B; fill-opacity: 0.90;"
     clip-path="url(#cpNDEuMjZ8NDk1LjI5fDM5OC4wM3w5MC4xNQ==)"
     id="circle111" />
  <circle
     cx="297.76"
     cy="166.88"
     r="4.00"
     style="stroke-width: 0.71; stroke: #32AC6F; stroke-opacity: 0.90; fill: #32AC6F; fill-opacity: 0.90;"
     clip-path="url(#cpNDEuMjZ8NDk1LjI5fDM5OC4wM3w5MC4xNQ==)"
     id="circle113" />
  <circle
     cx="297.76"
     cy="195.84"
     r="4.23"
     style="stroke-width: 0.71; stroke: #2DBD75; stroke-opacity: 0.90; fill: #2DBD75; fill-opacity: 0.90;"
     clip-path="url(#cpNDEuMjZ8NDk1LjI5fDM5OC4wM3w5MC4xNQ==)"
     id="circle115" />
  <circle
     cx="297.76"
     cy="147.58"
     r="4.23"
     style="stroke-width: 0.71; stroke: #34A26C; stroke-opacity: 0.90; fill: #34A26C; fill-opacity: 0.90;"
     clip-path="url(#cpNDEuMjZ8NDk1LjI5fDM5OC4wM3w5MC4xNQ==)"
     id="circle117" />
  <circle
     cx="297.76"
     cy="104.15"
     r="4.12"
     style="stroke-width: 0.71; stroke: #359768; stroke-opacity: 0.90; fill: #359768; fill-opacity: 0.90;"
     clip-path="url(#cpNDEuMjZ8NDk1LjI5fDM5OC4wM3w5MC4xNQ==)"
     id="circle119" />
  <circle
     cx="297.76"
     cy="123.45"
     r="3.88"
     style="stroke-width: 0.71; stroke: #29C879; stroke-opacity: 0.90; fill: #29C879; fill-opacity: 0.90;"
     clip-path="url(#cpNDEuMjZ8NDk1LjI5fDM5OC4wM3w5MC4xNQ==)"
     id="circle121" />
  <circle
     cx="297.76"
     cy="142.75"
     r="4.00"
     style="stroke-width: 0.71; stroke: #359C6A; stroke-opacity: 0.90; fill: #359C6A; fill-opacity: 0.90;"
     clip-path="url(#cpNDEuMjZ8NDk1LjI5fDM5OC4wM3w5MC4xNQ==)"
     id="circle123" />
  <circle
     cx="356.72"
     cy="171.71"
     r="5.54"
     style="stroke-width: 0.71; stroke: #22D37D; stroke-opacity: 0.90; fill: #22D37D; fill-opacity: 0.90;"
     clip-path="url(#cpNDEuMjZ8NDk1LjI5fDM5OC4wM3w5MC4xNQ==)"
     id="circle125" />
  <circle
     cx="356.72"
     cy="128.28"
     r="5.31"
     style="stroke-width: 0.71; stroke: #2DBD75; stroke-opacity: 0.90; fill: #2DBD75; fill-opacity: 0.90;"
     clip-path="url(#cpNDEuMjZ8NDk1LjI5fDM5OC4wM3w5MC4xNQ==)"
     id="circle127" />
  <circle
     cx="356.72"
     cy="162.06"
     r="5.23"
     style="stroke-width: 0.71; stroke: #29C879; stroke-opacity: 0.90; fill: #29C879; fill-opacity: 0.90;"
     clip-path="url(#cpNDEuMjZ8NDk1LjI5fDM5OC4wM3w5MC4xNQ==)"
     id="circle129" />
  <circle
     cx="356.72"
     cy="142.75"
     r="5.15"
     style="stroke-width: 0.71; stroke: #34A26C; stroke-opacity: 0.90; fill: #34A26C; fill-opacity: 0.90;"
     clip-path="url(#cpNDEuMjZ8NDk1LjI5fDM5OC4wM3w5MC4xNQ==)"
     id="circle131" />
  <circle
     cx="356.72"
     cy="113.80"
     r="5.07"
     style="stroke-width: 0.71; stroke: #32AC6F; stroke-opacity: 0.90; fill: #32AC6F; fill-opacity: 0.90;"
     clip-path="url(#cpNDEuMjZ8NDk1LjI5fDM5OC4wM3w5MC4xNQ==)"
     id="circle133" />
  <circle
     cx="356.72"
     cy="176.53"
     r="4.53"
     style="stroke-width: 0.71; stroke: #29C879; stroke-opacity: 0.90; fill: #29C879; fill-opacity: 0.90;"
     clip-path="url(#cpNDEuMjZ8NDk1LjI5fDM5OC4wM3w5MC4xNQ==)"
     id="circle135" />
  <circle
     cx="356.72"
     cy="166.88"
     r="4.81"
     style="stroke-width: 0.71; stroke: #26CD7B; stroke-opacity: 0.90; fill: #26CD7B; fill-opacity: 0.90;"
     clip-path="url(#cpNDEuMjZ8NDk1LjI5fDM5OC4wM3w5MC4xNQ==)"
     id="circle137" />
  <circle
     cx="356.72"
     cy="176.53"
     r="4.81"
     style="stroke-width: 0.71; stroke: #34A26C; stroke-opacity: 0.90; fill: #34A26C; fill-opacity: 0.90;"
     clip-path="url(#cpNDEuMjZ8NDk1LjI5fDM5OC4wM3w5MC4xNQ==)"
     id="circle139" />
  <circle
     cx="356.72"
     cy="104.15"
     r="5.31"
     style="stroke-width: 0.71; stroke: #359C6A; stroke-opacity: 0.90; fill: #359C6A; fill-opacity: 0.90;"
     clip-path="url(#cpNDEuMjZ8NDk1LjI5fDM5OC4wM3w5MC4xNQ==)"
     id="circle141" />
  <circle
     cx="356.72"
     cy="104.15"
     r="5.07"
     style="stroke-width: 0.71; stroke: #36725A; stroke-opacity: 0.90; fill: #36725A; fill-opacity: 0.90;"
     clip-path="url(#cpNDEuMjZ8NDk1LjI5fDM5OC4wM3w5MC4xNQ==)"
     id="circle143" />
  <circle
     cx="415.69"
     cy="166.88"
     r="6.46"
     style="stroke-width: 0.71; stroke: #34A26C; stroke-opacity: 0.90; fill: #34A26C; fill-opacity: 0.90;"
     clip-path="url(#cpNDEuMjZ8NDk1LjI5fDM5OC4wM3w5MC4xNQ==)"
     id="circle145" />
  <circle
     cx="415.69"
     cy="152.40"
     r="5.75"
     style="stroke-width: 0.71; stroke: #34A26C; stroke-opacity: 0.90; fill: #34A26C; fill-opacity: 0.90;"
     clip-path="url(#cpNDEuMjZ8NDk1LjI5fDM5OC4wM3w5MC4xNQ==)"
     id="circle147" />
  <circle
     cx="415.69"
     cy="137.93"
     r="5.61"
     style="stroke-width: 0.71; stroke: #368C64; stroke-opacity: 0.90; fill: #368C64; fill-opacity: 0.90;"
     clip-path="url(#cpNDEuMjZ8NDk1LjI5fDM5OC4wM3w5MC4xNQ==)"
     id="circle149" />
  <circle
     cx="415.69"
     cy="108.97"
     r="5.61"
     style="stroke-width: 0.71; stroke: #22D37D; stroke-opacity: 0.90; fill: #22D37D; fill-opacity: 0.90;"
     clip-path="url(#cpNDEuMjZ8NDk1LjI5fDM5OC4wM3w5MC4xNQ==)"
     id="circle151" />
  <circle
     cx="415.69"
     cy="157.23"
     r="5.46"
     style="stroke-width: 0.71; stroke: #34A26C; stroke-opacity: 0.90; fill: #34A26C; fill-opacity: 0.90;"
     clip-path="url(#cpNDEuMjZ8NDk1LjI5fDM5OC4wM3w5MC4xNQ==)"
     id="circle153" />
  <circle
     cx="415.69"
     cy="147.58"
     r="5.54"
     style="stroke-width: 0.71; stroke: #356856; stroke-opacity: 0.90; fill: #356856; fill-opacity: 0.90;"
     clip-path="url(#cpNDEuMjZ8NDk1LjI5fDM5OC4wM3w5MC4xNQ==)"
     id="circle155" />
  <circle
     cx="415.69"
     cy="128.28"
     r="5.23"
     style="stroke-width: 0.71; stroke: #2B3842; stroke-opacity: 0.90; fill: #2B3842; fill-opacity: 0.90;"
     clip-path="url(#cpNDEuMjZ8NDk1LjI5fDM5OC4wM3w5MC4xNQ==)"
     id="circle157" />
  <circle
     cx="474.65"
     cy="215.14"
     r="6.76"
     style="stroke-width: 0.71; stroke: #2DBD75; stroke-opacity: 0.90; fill: #2DBD75; fill-opacity: 0.90;"
     clip-path="url(#cpNDEuMjZ8NDk1LjI5fDM5OC4wM3w5MC4xNQ==)"
     id="circle159" />
  <circle
     cx="474.65"
     cy="200.66"
     r="6.03"
     style="stroke-width: 0.71; stroke: #33A76D; stroke-opacity: 0.90; fill: #33A76D; fill-opacity: 0.90;"
     clip-path="url(#cpNDEuMjZ8NDk1LjI5fDM5OC4wM3w5MC4xNQ==)"
     id="circle161" />
  <circle
     cx="474.65"
     cy="219.96"
     r="6.76"
     style="stroke-width: 0.71; stroke: #282F3E; stroke-opacity: 0.90; fill: #282F3E; fill-opacity: 0.90;"
     clip-path="url(#cpNDEuMjZ8NDk1LjI5fDM5OC4wM3w5MC4xNQ==)"
     id="circle163" />
  <circle
     cx="474.65"
     cy="316.48"
     r="6.22"
     style="stroke-width: 0.71; stroke: #2E4246; stroke-opacity: 0.90; fill: #2E4246; fill-opacity: 0.90;"
     clip-path="url(#cpNDEuMjZ8NDk1LjI5fDM5OC4wM3w5MC4xNQ==)"
     id="circle165" />
  <circle
     cx="474.65"
     cy="292.35"
     r="6.15"
     style="stroke-width: 0.71; stroke: #2E4246; stroke-opacity: 0.90; fill: #2E4246; fill-opacity: 0.90;"
     clip-path="url(#cpNDEuMjZ8NDk1LjI5fDM5OC4wM3w5MC4xNQ==)"
     id="circle167" />
  <circle
     cx="474.65"
     cy="384.04"
     r="6.70"
     style="stroke-width: 0.71; stroke: #2B3842; stroke-opacity: 0.90; fill: #2B3842; fill-opacity: 0.90;"
     clip-path="url(#cpNDEuMjZ8NDk1LjI5fDM5OC4wM3w5MC4xNQ==)"
     id="circle169" />
  <rect
     x="347.89"
     y="272.63"
     width="141.73"
     height="77.39"
     style="stroke-width: 0.75; stroke: none;"
     clip-path="url(#cpNDEuMjZ8NDk1LjI5fDM5OC4wM3w5MC4xNQ==)"
     id="rect173" />
  <g
     clip-path="url(#cpNDEuMjZ8NDk1LjI5fDM5OC4wM3w5MC4xNQ==)"
     id="g177">
    <text
       x="353.56"
       y="286.89"
       style="font-size: 12.00px; font-weight: bold; fill: #525252; font-family: Arial;"
       textLength="91.33px"
       lengthAdjust="spacingAndGlyphs"
       id="text175">The Iron Throne</text>
  </g>
  <g
     clip-path="url(#cpNDEuMjZ8NDk1LjI5fDM5OC4wM3w5MC4xNQ==)"
     id="g181">
    <text
       x="353.56"
       y="301.15"
       style="font-size: 12.00px; fill: #525252; font-family: Arial;"
       textLength="101.40px"
       lengthAdjust="spacingAndGlyphs"
       id="text179">The last episode of</text>
  </g>
  <g
     clip-path="url(#cpNDEuMjZ8NDk1LjI5fDM5OC4wM3w5MC4xNQ==)"
     id="g185">
    <text
       x="353.56"
       y="315.55"
       style="font-size: 12.00px; fill: #525252; font-family: Arial;"
       textLength="85.38px"
       lengthAdjust="spacingAndGlyphs"
       id="text183">the show is also</text>
  </g>
  <g
     clip-path="url(#cpNDEuMjZ8NDk1LjI5fDM5OC4wM3w5MC4xNQ==)"
     id="g189">
    <text
       x="353.56"
       y="329.95"
       style="font-size: 12.00px; fill: #525252; font-family: Arial;"
       textLength="84.73px"
       lengthAdjust="spacingAndGlyphs"
       id="text187">the one with the</text>
  </g>
  <g
     clip-path="url(#cpNDEuMjZ8NDk1LjI5fDM5OC4wM3w5MC4xNQ==)"
     id="g193">
    <text
       x="353.56"
       y="344.35"
       style="font-size: 12.00px; fill: #525252; font-family: Arial;"
       textLength="95.37px"
       lengthAdjust="spacingAndGlyphs"
       id="text191">lowest rating (4.1)</text>
  </g>
  <polyline
     points="347.89,350.02 489.62,350.02 489.62,361.99 486.50,365.11 "
     style="stroke-width:1.07"
     clip-path="url(#cpNDEuMjZ8NDk1LjI5fDM5OC4wM3w5MC4xNQ==)"
     id="polyline195"
     transform="matrix(0.95111231,0,0,1.6987736,17.161458,-244.45457)" />
  <defs
     id="defs200">
    <clipPath
       id="cpMC4wMHw1MTAuMjR8NDUzLjU0fDAuMDA=">
      <rect
         x="0.00"
         y="0.00"
         width="510.24"
         height="453.54"
         id="rect197" />
    </clipPath>
  </defs>
  <g
     clip-path="url(#cpMC4wMHw1MTAuMjR8NDUzLjU0fDAuMDA=)"
     id="g204">
    <text
       x="31.64"
       y="391.90"
       style="font-size: 8.80px; fill: #525252; font-family: Fira Sans;"
       textLength="4.68px"
       lengthAdjust="spacingAndGlyphs"
       id="text202">4</text>
  </g>
  <g
     clip-path="url(#cpMC4wMHw1MTAuMjR8NDUzLjU0fDAuMDA=)"
     id="g208">
    <text
       x="31.64"
       y="295.38"
       style="font-size: 8.80px; fill: #525252; font-family: Fira Sans;"
       textLength="4.69px"
       lengthAdjust="spacingAndGlyphs"
       id="text206">6</text>
  </g>
  <g
     clip-path="url(#cpMC4wMHw1MTAuMjR8NDUzLjU0fDAuMDA=)"
     id="g212">
    <text
       x="31.48"
       y="198.87"
       style="font-size: 8.80px; fill: #525252; font-family: Fira Sans;"
       textLength="4.85px"
       lengthAdjust="spacingAndGlyphs"
       id="text210">8</text>
  </g>
  <g
     clip-path="url(#cpMC4wMHw1MTAuMjR8NDUzLjU0fDAuMDA=)"
     id="g216">
    <text
       x="27.61"
       y="102.35"
       style="font-size: 8.80px; fill: #525252; font-family: Fira Sans;"
       textLength="8.72px"
       lengthAdjust="spacingAndGlyphs"
       id="text214">10</text>
  </g>
  <polyline
     points="120.86,400.77 120.86,398.03 "
     style="stroke-width: 1.07; stroke: #333333; stroke-linecap: butt;"
     clip-path="url(#cpMC4wMHw1MTAuMjR8NDUzLjU0fDAuMDA=)"
     id="polyline218" />
  <polyline
     points="238.79,400.77 238.79,398.03 "
     style="stroke-width: 1.07; stroke: #333333; stroke-linecap: butt;"
     clip-path="url(#cpMC4wMHw1MTAuMjR8NDUzLjU0fDAuMDA=)"
     id="polyline220" />
  <polyline
     points="356.72,400.77 356.72,398.03 "
     style="stroke-width: 1.07; stroke: #333333; stroke-linecap: butt;"
     clip-path="url(#cpMC4wMHw1MTAuMjR8NDUzLjU0fDAuMDA=)"
     id="polyline222" />
  <polyline
     points="474.65,400.77 474.65,398.03 "
     style="stroke-width: 1.07; stroke: #333333; stroke-linecap: butt;"
     clip-path="url(#cpMC4wMHw1MTAuMjR8NDUzLjU0fDAuMDA=)"
     id="polyline224" />
  <g
     clip-path="url(#cpMC4wMHw1MTAuMjR8NDUzLjU0fDAuMDA=)"
     id="g228">
    <text
       x="118.68"
       y="409.03"
       style="font-size: 8.80px; fill: #525252; font-family: Fira Sans;"
       textLength="4.36px"
       lengthAdjust="spacingAndGlyphs"
       id="text226">2</text>
  </g>
  <g
     clip-path="url(#cpMC4wMHw1MTAuMjR8NDUzLjU0fDAuMDA=)"
     id="g232">
    <text
       x="236.45"
       y="409.03"
       style="font-size: 8.80px; fill: #525252; font-family: Fira Sans;"
       textLength="4.68px"
       lengthAdjust="spacingAndGlyphs"
       id="text230">4</text>
  </g>
  <g
     clip-path="url(#cpMC4wMHw1MTAuMjR8NDUzLjU0fDAuMDA=)"
     id="g236">
    <text
       x="354.38"
       y="409.03"
       style="font-size: 8.80px; fill: #525252; font-family: Fira Sans;"
       textLength="4.69px"
       lengthAdjust="spacingAndGlyphs"
       id="text234">6</text>
  </g>
  <g
     clip-path="url(#cpMC4wMHw1MTAuMjR8NDUzLjU0fDAuMDA=)"
     id="g240">
    <text
       x="472.23"
       y="409.03"
       style="font-size: 8.80px; fill: #525252; font-family: Fira Sans;"
       textLength="4.85px"
       lengthAdjust="spacingAndGlyphs"
       id="text238">8</text>
  </g>
  <g
     clip-path="url(#cpMC4wMHw1MTAuMjR8NDUzLjU0fDAuMDA=)"
     id="g244">
    <text
       x="250.36"
       y="421.22"
       style="font-size: 11.00px; fill: #525252; font-family: Fira Sans;"
       textLength="35.84px"
       lengthAdjust="spacingAndGlyphs"
       id="text242">Season</text>
  </g>
  <g
     clip-path="url(#cpMC4wMHw1MTAuMjR8NDUzLjU0fDAuMDA=)"
     id="g248">
    <text
       transform="translate(22.52,259.93) rotate(-90)"
       style="font-size: 11.00px; fill: #525252; font-family: Fira Sans;"
       textLength="31.68px"
       lengthAdjust="spacingAndGlyphs"
       id="text246">Rating</text>
  </g>
  <g
     clip-path="url(#cpMC4wMHw1MTAuMjR8NDUzLjU0fDAuMDA=)"
     id="g252">
    <text
       x="14.94"
       y="62.49"
       style="font-size: 12.00px; fill: #525252; font-family: Fira Sans;"
       textLength="48.59px"
       lengthAdjust="spacingAndGlyphs"
       id="text250">Episodes</text>
  </g>
  <g
     clip-path="url(#cpMC4wMHw1MTAuMjR8NDUzLjU0fDAuMDA=)"
     id="g256">
    <text
       x="66.71"
       y="62.49"
       style="font-size: 12.00px; fill: #525252; font-family: Fira Sans;"
       textLength="13.25px"
       lengthAdjust="spacingAndGlyphs"
       id="text254">go</text>
  </g>
  <g
     clip-path="url(#cpMC4wMHw1MTAuMjR8NDUzLjU0fDAuMDA=)"
     id="g260">
    <text
       x="83.14"
       y="62.49"
       style="font-size: 12.00px; fill: #525252; font-family: Fira Sans;"
       textLength="25.82px"
       lengthAdjust="spacingAndGlyphs"
       id="text258">from</text>
  </g>
  <g
     clip-path="url(#cpMC4wMHw1MTAuMjR8NDUzLjU0fDAuMDA=)"
     id="g264">
    <text
       x="112.14"
       y="62.49"
       style="font-size: 12.00px; font-weight: bold; fill: #22D37D; font-family: Fira Sans;"
       textLength="13.45px"
       lengthAdjust="spacingAndGlyphs"
       id="text262">50</text>
  </g>
  <g
     clip-path="url(#cpMC4wMHw1MTAuMjR8NDUzLjU0fDAuMDA=)"
     id="g268">
    <text
       x="128.78"
       y="62.49"
       style="font-size: 12.00px; fill: #525252; font-family: Fira Sans;"
       textLength="43.82px"
       lengthAdjust="spacingAndGlyphs"
       id="text266">minutes</text>
  </g>
  <g
     clip-path="url(#cpMC4wMHw1MTAuMjR8NDUzLjU0fDAuMDA=)"
     id="g272">
    <text
       x="175.78"
       y="62.49"
       style="font-size: 12.00px; fill: #525252; font-family: Fira Sans;"
       textLength="11.34px"
       lengthAdjust="spacingAndGlyphs"
       id="text270">to</text>
  </g>
  <g
     clip-path="url(#cpMC4wMHw1MTAuMjR8NDUzLjU0fDAuMDA=)"
     id="g276">
    <text
       x="190.30"
       y="62.49"
       style="font-size: 12.00px; font-weight: bold; fill: #282F3E; font-family: Fira Sans;"
       textLength="13.18px"
       lengthAdjust="spacingAndGlyphs"
       id="text274">82</text>
  </g>
  <g
     clip-path="url(#cpMC4wMHw1MTAuMjR8NDUzLjU0fDAuMDA=)"
     id="g280">
    <text
       x="206.66"
       y="62.49"
       style="font-size: 12.00px; fill: #525252; font-family: Fira Sans;"
       textLength="46.70px"
       lengthAdjust="spacingAndGlyphs"
       id="text278">minutes.</text>
  </g>
  <g
     clip-path="url(#cpMC4wMHw1MTAuMjR8NDUzLjU0fDAuMDA=)"
     id="g284">
    <text
       x="14.94"
       y="73.42"
       style="font-size: 12.00px; fill: #525252; font-family: Fira Sans;"
       textLength="19.07px"
       lengthAdjust="spacingAndGlyphs"
       id="text282">Dot</text>
  </g>
  <g
     clip-path="url(#cpMC4wMHw1MTAuMjR8NDUzLjU0fDAuMDA=)"
     id="g288">
    <text
       x="37.19"
       y="73.42"
       style="font-size: 12.00px; fill: #525252; font-family: Fira Sans;"
       textLength="20.63px"
       lengthAdjust="spacingAndGlyphs"
       id="text286">size</text>
  </g>
  <g
     clip-path="url(#cpMC4wMHw1MTAuMjR8NDUzLjU0fDAuMDA=)"
     id="g292">
    <text
       x="61.00"
       y="73.42"
       style="font-size: 12.00px; fill: #525252; font-family: Fira Sans;"
       textLength="8.92px"
       lengthAdjust="spacingAndGlyphs"
       id="text290">is</text>
  </g>
  <g
     clip-path="url(#cpMC4wMHw1MTAuMjR8NDUzLjU0fDAuMDA=)"
     id="g296">
    <text
       x="73.10"
       y="73.42"
       style="font-size: 12.00px; fill: #525252; font-family: Fira Sans;"
       textLength="68.87px"
       lengthAdjust="spacingAndGlyphs"
       id="text294">proportional</text>
  </g>
  <g
     clip-path="url(#cpMC4wMHw1MTAuMjR8NDUzLjU0fDAuMDA=)"
     id="g300">
    <text
       x="145.14"
       y="73.42"
       style="font-size: 12.00px; fill: #525252; font-family: Fira Sans;"
       textLength="11.34px"
       lengthAdjust="spacingAndGlyphs"
       id="text298">to</text>
  </g>
  <g
     clip-path="url(#cpMC4wMHw1MTAuMjR8NDUzLjU0fDAuMDA=)"
     id="g304">
    <text
       x="159.66"
       y="73.42"
       style="font-size: 12.00px; fill: #525252; font-family: Fira Sans;"
       textLength="17.81px"
       lengthAdjust="spacingAndGlyphs"
       id="text302">the</text>
  </g>
  <g
     clip-path="url(#cpMC4wMHw1MTAuMjR8NDUzLjU0fDAuMDA=)"
     id="g308">
    <text
       x="180.65"
       y="73.42"
       style="font-size: 12.00px; fill: #525252; font-family: Fira Sans;"
       textLength="42.20px"
       lengthAdjust="spacingAndGlyphs"
       id="text306">number</text>
  </g>
  <g
     clip-path="url(#cpMC4wMHw1MTAuMjR8NDUzLjU0fDAuMDA=)"
     id="g312">
    <text
       x="226.04"
       y="73.42"
       style="font-size: 12.00px; fill: #525252; font-family: Fira Sans;"
       textLength="11.03px"
       lengthAdjust="spacingAndGlyphs"
       id="text310">of</text>
  </g>
  <g
     clip-path="url(#cpMC4wMHw1MTAuMjR8NDUzLjU0fDAuMDA=)"
     id="g316">
    <text
       x="240.24"
       y="73.42"
       style="font-size: 12.00px; fill: #525252; font-family: Fira Sans;"
       textLength="41.08px"
       lengthAdjust="spacingAndGlyphs"
       id="text314">reviews</text>
  </g>
  <g
     clip-path="url(#cpMC4wMHw1MTAuMjR8NDUzLjU0fDAuMDA=)"
     id="g320">
    <text
       x="284.50"
       y="73.42"
       style="font-size: 12.00px; fill: #525252; font-family: Fira Sans;"
       textLength="38.65px"
       lengthAdjust="spacingAndGlyphs"
       id="text318">written</text>
  </g>
  <g
     clip-path="url(#cpMC4wMHw1MTAuMjR8NDUzLjU0fDAuMDA=)"
     id="g324">
    <text
       x="326.33"
       y="73.42"
       style="font-size: 12.00px; fill: #525252; font-family: Fira Sans;"
       textLength="12.94px"
       lengthAdjust="spacingAndGlyphs"
       id="text322">by</text>
  </g>
  <g
     clip-path="url(#cpMC4wMHw1MTAuMjR8NDUzLjU0fDAuMDA=)"
     id="g328">
    <text
       x="342.45"
       y="73.42"
       style="font-size: 12.00px; fill: #525252; font-family: Fira Sans;"
       textLength="27.64px"
       lengthAdjust="spacingAndGlyphs"
       id="text326">IMDb</text>
  </g>
  <g
     clip-path="url(#cpMC4wMHw1MTAuMjR8NDUzLjU0fDAuMDA=)"
     id="g332">
    <text
       x="373.26"
       y="73.42"
       style="font-size: 12.00px; fill: #525252; font-family: Fira Sans;"
       textLength="35.51px"
       lengthAdjust="spacingAndGlyphs"
       id="text330">critics.</text>
  </g>
  <g
     clip-path="url(#cpMC4wMHw1MTAuMjR8NDUzLjU0fDAuMDA=)"
     id="g336">
    <text
       x="14.94"
       y="38.77"
       style="font-size: 20.00px; font-weight: bold; fill: #525252; font-family: Fira Sans;"
       textLength="350.12px"
       lengthAdjust="spacingAndGlyphs"
       id="text334">Game of Thrones Through the Seasons</text>
  </g>
  <g
     clip-path="url(#cpMC4wMHw1MTAuMjR8NDUzLjU0fDAuMDA=)"
     id="g340">
    <text
       x="374.03"
       y="441.80"
       style="font-size: 8.00px; fill: #525252; font-family: Fira Sans;"
       textLength="23.66px"
       lengthAdjust="spacingAndGlyphs"
       id="text338">Graph:</text>
  </g>
  <g
     clip-path="url(#cpMC4wMHw1MTAuMjR8NDUzLjU0fDAuMDA=)"
     id="g344">
    <text
       x="399.81"
       y="441.80"
       style="font-size: 8.00px; font-weight: bold; fill: #525252; font-family: Fira Sans;"
       textLength="36.14px"
       lengthAdjust="spacingAndGlyphs"
       id="text342">@luisfreii</text>
  </g>
  <g
     clip-path="url(#cpMC4wMHw1MTAuMjR8NDUzLjU0fDAuMDA=)"
     id="g348">
    <text
       x="435.96"
       y="441.80"
       style="font-size: 8.00px; fill: #525252; font-family: Fira Sans;"
       textLength="3.22px"
       lengthAdjust="spacingAndGlyphs"
       id="text346">|</text>
  </g>
  <g
     clip-path="url(#cpMC4wMHw1MTAuMjR8NDUzLjU0fDAuMDA=)"
     id="g352">
    <text
       x="441.30"
       y="441.80"
       style="font-size: 8.00px; fill: #525252; font-family: Fira Sans;"
       textLength="26.79px"
       lengthAdjust="spacingAndGlyphs"
       id="text350">Source:</text>
  </g>
  <g
     clip-path="url(#cpMC4wMHw1MTAuMjR8NDUzLjU0fDAuMDA=)"
     id="g356">
    <text
       x="470.21"
       y="441.80"
       style="font-size: 8.00px; font-weight: bold; fill: #525252; font-family: Fira Sans;"
       textLength="25.08px"
       lengthAdjust="spacingAndGlyphs"
       id="text354">Kaggle</text>
  </g>
  <g
     style="fill:#000000"
     id="g395"
     transform="matrix(0.7967748,0,0,0.67754821,373.26214,18.983678)">
    <path
       d="M 10.8125,2 C 10.519531,2.054688 10.265625,2.234375 10.121094,2.496094 9.976563,2.753906 9.957031,3.066406 10.0625,3.34375 c 0.429688,1.214844 1.21875,2.722656 2.3125,4 C 9.414063,7.320313 6,7.753906 2.53125,9.1875 2.167969,9.332031 1.925781,9.675781 1.90625,10.0625 1.886719,10.453125 2.09375,10.816406 2.4375,11 c 0.023438,0.01172 0.496094,0.378906 1,0.875 0.503906,0.496094 1.121094,1.113281 1.8125,1.78125 1.203125,1.15625 2.59375,2.421875 4.1875,3.125 C 8.445313,17.625 6.578125,18.871094 3.8125,19.09375 3.425781,19.12109 3.089844,19.367188 2.949219,19.730469 2.808594,20.089844 2.890625,20.5 3.15625,20.78125 c 0,0 0.585938,0.632813 1.46875,1.28125 0.484375,0.355469 1.089844,0.691406 1.75,0.96875 -0.5625,0.65625 -1.070312,1.347656 -1.875,1.9375 -1.195312,0.871094 -2.28125,1.46875 -2.28125,1.46875 -0.316406,0.175781 -0.515625,0.511719 -0.515625,0.875 0,0.363281 0.199219,0.699219 0.515625,0.875 0,0 0.644531,0.34375 1.4375,0.6875 0.367188,0.160156 0.816406,0.207031 1.21875,0.34375 C 3.257813,32.804688 0.46875,34.75 0.46875,34.75 c -0.332031,0.175781 -0.5390625,0.523438 -0.5351563,0.898438 0.0039063,0.375 0.2187503,0.714843 0.5585943,0.882812 0.335937,0.167969 0.738281,0.128906 1.039062,-0.09375 0,0 3.996094,-2.550781 5.71875,-7.5 C 7.363281,28.632813 7.316406,28.289063 7.132813,28.023438 6.945313,27.753906 6.640625,27.59375 6.3125,27.59375 6.117188,27.59375 5.394531,27.355469 4.78125,27.125 5.164063,26.878906 5.195313,26.898438 5.65625,26.5625 6.960938,25.609375 8.460938,24.4375 9.125,22.90625 9.261719,22.601563 9.234375,22.253906 9.0625,21.972656 8.886719,21.6875 8.582031,21.511719 8.25,21.5 c -0.628906,-0.02734 -1.355469,-0.433594 -2,-0.84375 2.6875,-0.757812 4.453125,-2.234375 5.15625,-2.9375 0.08984,-0.07813 0.164063,-0.175781 0.21875,-0.28125 2.292969,0.421875 3.953125,-0.05469 4.71875,-0.4375 0.332031,-0.152344 0.558594,-0.476562 0.582031,-0.84375 0.02344,-0.363281 -0.15625,-0.714844 -0.464843,-0.910156 -0.3125,-0.195313 -0.703125,-0.207031 -1.023438,-0.02734 -0.28125,0.140625 -2.082031,0.753906 -4.625,-0.0625 C 9.519531,14.753906 7.972656,13.484375 6.65625,12.21875 6.023438,11.609375 5.425781,11.015625 4.90625,10.5 8.746094,9.265625 12.503906,9.164063 15.375,9.5 15.617188,9.53125 15.859375,9.476563 16.0625,9.34375 17.785156,8.195313 20.054688,7 23.09375,7 c 4.765625,0 7.421875,0.613281 8.96875,1.34375 1.546875,0.730469 2.050781,1.515625 2.71875,2.4375 0.183594,0.25 0.472656,0.398438 0.78125,0.40625 5.710938,0.195313 9.53125,1.9375 9.53125,1.9375 0.128906,0.04688 0.269531,0.07031 0.40625,0.0625 0,0 1.027344,0.03516 2.4375,0.21875 -0.06641,0.261719 -0.378906,0.78125 -0.59375,1.03125 -0.207031,0.242188 -0.289062,0.566406 -0.21875,0.875 0.179688,0.828125 -0.476562,2.917969 -1.34375,4.625 -0.753906,1.488281 -1.398437,2.394531 -1.59375,2.6875 -0.664062,0.09766 -5.738281,0.785156 -9.84375,-1.78125 V 20.875 C 32.246094,19.511719 30.492188,18.839844 28.875,19 c -1.617187,0.160156 -2.902344,1.21875 -3.75,2.6875 -0.636719,1.078125 -0.957031,2.058594 -0.9375,3 0.01953,0.941406 0.453125,1.792969 1.0625,2.40625 1.214844,1.230469 3.023438,1.800781 5,2.34375 1.976563,0.542969 4.121094,0.988281 5.875,1.65625 1.558594,0.59375 2.667969,1.351563 3.28125,2.28125 -0.269531,0.660156 -0.929687,1.542969 -1.75,2.25 -0.160156,0.136719 -0.160156,0.09766 -0.3125,0.21875 -0.09375,-0.363281 -0.148437,-0.746094 -0.5,-1.0625 -0.503906,-0.453125 -1.234375,-0.601562 -2,-0.46875 -1.898437,0.316406 -2.914062,-0.06641 -3.90625,-0.34375 -0.496094,-0.140625 -1.058594,-0.289062 -1.71875,-0.125 -0.660156,0.164063 -1.199219,0.675781 -1.59375,1.34375 -0.01172,0.03125 -0.02344,0.0625 -0.03125,0.09375 -0.738281,1.546875 -0.394531,3.234375 0,4.53125 0.09375,0.300781 0.117188,0.273438 0.21875,0.53125 -0.855469,-0.289062 -1.5625,-0.6875 -1.5625,-0.6875 -0.230469,-0.195312 -0.535156,-0.28125 -0.832031,-0.226562 -0.296875,0.05469 -0.554688,0.242187 -0.699219,0.507812 -1.835937,3.546875 0.5,7.71875 0.5,7.71875 0.152344,0.332031 0.476563,0.558594 0.84375,0.582031 0.363281,0.02344 0.714844,-0.15625 0.910156,-0.464843 C 27.167969,47.460938 27.179688,47.070313 27,46.75 c 0,0 -1.097656,-2.582031 -0.75,-4.75 0.820313,0.40625 1.960938,0.78125 3.28125,0.59375 0.328125,-0.04297 0.613281,-0.242187 0.761719,-0.535156 0.148437,-0.296875 0.144531,-0.644531 -0.01172,-0.933594 0,0 -0.453125,-0.828125 -0.78125,-1.90625 -0.316406,-1.039062 -0.441406,-2.238281 -0.125,-3 0.01953,-0.03516 0.01172,-0.0039 0.03125,-0.03125 0.210938,-0.335937 0.289063,-0.402344 0.3125,-0.40625 0.02344,-0.0078 0.246094,0 0.6875,0.125 0.882813,0.246094 2.445313,0.757813 4.75,0.375 0.386719,-0.06641 0.402344,-0.0078 0.375,-0.03125 -0.02734,-0.02344 0.01172,0.05469 0.03125,0.25 0.03516,0.390625 -0.125,1 -0.125,1 -0.136719,0.40625 -0.0039,0.855469 0.335938,1.117188 0.339843,0.261718 0.808593,0.277343 1.164062,0.03906 0,0 0.980469,-0.625 2.03125,-1.53125 1.050781,-0.90625 2.242188,-2.046875 2.59375,-3.59375 0.05469,-0.21875 0.03125,-0.449219 -0.0625,-0.65625 -0.691406,-1.460937 -1.988281,-2.390625 -3.46875,-3.09375 0.195313,-0.804687 0.296875,-1.988281 -0.125,-3.46875 -1.085937,1.359375 -2.324219,2.257813 -2.5625,2.4375 C 34.902344,28.613281 34.445313,28.464844 34,28.34375 c 0.05859,-0.445312 0.09375,-0.910156 0.09375,-1.4375 -0.472656,0.421875 -0.988281,0.765625 -1.46875,1.0625 -0.316406,-0.08203 -0.628906,-0.167969 -0.9375,-0.25 0.0625,-0.480469 0.05859,-1.019531 0,-1.625 -0.539062,0.484375 -1.09375,0.875 -1.625,1.1875 -0.339844,-0.101562 -0.660156,-0.203125 -0.96875,-0.3125 0.08984,-0.507812 0.152344,-1.054687 0.09375,-1.65625 -0.484375,0.429688 -0.988281,0.792969 -1.46875,1.09375 -0.445312,-0.226562 -0.828125,-0.480469 -1.0625,-0.71875 -0.328125,-0.332031 -0.460937,-0.597656 -0.46875,-1.03125 -0.0078,-0.433594 0.171875,-1.0625 0.6875,-1.9375 0,-0.01172 0,-0.01953 0,-0.03125 0.652344,-1.132812 1.28125,-1.597656 2.1875,-1.6875 0.265625,-0.02734 0.59375,0 0.9375,0.0625 -0.01172,0.515625 -0.03906,1.105469 -0.09375,1.75 0.699219,-0.253906 1.273438,-0.683594 1.78125,-1.15625 0.359375,0.171875 0.746094,0.40625 1.15625,0.65625 0.0625,0.492188 0.08984,1.113281 -0.03125,2 0.585938,-0.175781 1.117188,-0.609375 1.59375,-1.125 0.324219,0.160156 0.644531,0.304688 0.96875,0.4375 -0.01953,0.519531 -0.09766,1.109375 -0.1875,1.78125 0.617188,-0.183594 1.203125,-0.699219 1.71875,-1.28125 0.691406,0.195313 1.371094,0.335938 2.03125,0.4375 0.109375,0.753906 0.21875,2.03125 -0.03125,3.84375 1.453125,-0.507812 2.679688,-2.515625 3.25,-3.59375 1.675781,-0.01563 2.8125,-0.21875 2.8125,-0.21875 0.269531,-0.05078 0.507813,-0.207031 0.65625,-0.4375 0,0 1.003906,-1.46875 1.9375,-3.3125 0.847656,-1.671875 1.625,-3.59375 1.46875,-5.40625 0.335938,-0.425781 0.714844,-0.917969 0.875,-1.625 0.09766,-0.421875 0.105469,-0.960937 -0.1875,-1.46875 -0.292969,-0.507812 -0.851562,-0.828125 -1.4375,-0.9375 -0.01953,0 -0.04297,0 -0.0625,0 C 46.746094,11.210938 45.78125,11.1875 45.65625,11.1875 45.316406,11.039063 41.640625,9.527344 36.09375,9.25 35.472656,8.402344 34.648438,7.339844 32.9375,6.53125 31.15625,5.691406 28.507813,5.125 24.3125,5.03125 23.976563,4.796875 23.085938,4.207031 21.28125,3.5625 19.074219,2.773438 15.707031,2 11,2 10.96875,2 10.9375,2 10.90625,2 10.875,2 10.84375,2 10.8125,2 Z M 12.75,4.15625 c 3.238281,0.164063 5.796875,0.605469 7.5,1.15625 C 18.28125,5.75 16.6875,6.589844 15.40625,7.40625 14.386719,6.726563 13.457031,5.410156 12.75,4.15625 Z M 28.34375,12.125 C 26.980469,12.1875 26,12.40625 26,12.40625 c 0.101563,0.699219 1.488281,2.707031 3.1875,2.90625 1.300781,-1.199219 2.613281,-2.125 3.8125,-2.625 -1.550781,-0.550781 -3.292969,-0.625 -4.65625,-0.5625 z"
       id="path384" />
  </g>
</svg>
