<?xml version="1.0" encoding="UTF-8" standalone="no"?>
<svg
   xmlns:dc="http://purl.org/dc/elements/1.1/"
   xmlns:cc="http://creativecommons.org/ns#"
   xmlns:rdf="http://www.w3.org/1999/02/22-rdf-syntax-ns#"
   xmlns:svg="http://www.w3.org/2000/svg"
   xmlns="http://www.w3.org/2000/svg"
   xmlns:sodipodi="http://sodipodi.sourceforge.net/DTD/sodipodi-0.dtd"
   xmlns:inkscape="http://www.inkscape.org/namespaces/inkscape"
   viewBox="0 0 538.58 425.20"
   version="1.1"
   id="svg166"
   sodipodi:docname="D24.Monochrome.svg"
   inkscape:export-filename="C:\Users\Personal\Desktop\RProjects\#30DayChartChallenge\D24.Monochrome\D24.Monochrome.png"
   inkscape:export-xdpi="320.20001"
   inkscape:export-ydpi="320.20001"
   inkscape:version="1.0.1 (3bc2e813f5, 2020-09-07)">
  <metadata
     id="metadata170">
    <rdf:RDF>
      <cc:Work
         rdf:about="">
        <dc:format>image/svg+xml</dc:format>
        <dc:type
           rdf:resource="http://purl.org/dc/dcmitype/StillImage" />
      </cc:Work>
    </rdf:RDF>
  </metadata>
  <sodipodi:namedview
     pagecolor="#ffffff"
     bordercolor="#666666"
     borderopacity="1"
     objecttolerance="10"
     gridtolerance="10"
     guidetolerance="10"
     inkscape:pageopacity="0"
     inkscape:pageshadow="2"
     inkscape:window-width="1366"
     inkscape:window-height="716"
     id="namedview168"
     showgrid="false"
     inkscape:zoom="1.2036126"
     inkscape:cx="269.29001"
     inkscape:cy="212.60001"
     inkscape:window-x="-8"
     inkscape:window-y="-8"
     inkscape:window-maximized="1"
     inkscape:current-layer="svg166"
     inkscape:document-rotation="0" />
  <defs
     id="defs4">
    <style
       type="text/css"
       id="style2"><![CDATA[
    line, polyline, polygon, path, rect, circle {
      fill: none;
      stroke: #000000;
      stroke-linecap: round;
      stroke-linejoin: round;
      stroke-miterlimit: 10.00;
    }
  ]]></style>
  </defs>
  <rect
     width="100%"
     height="100%"
     style="stroke: none; fill: #FFFFFF;"
     id="rect6" />
  <rect
     x="-0.000000000000064"
     y="0.00"
     width="538.58"
     height="425.20"
     style="stroke-width: 1.07; stroke: #FFFFFF; fill: #F5F5F5;"
     id="rect8" />
  <rect
     x="31.55999"
     y="112.98"
     width="486.41"
     height="260.94"
     style="fill:#f5f5f5;stroke:none;stroke-width:1.07"
     id="rect10" />
  <polyline
     points="59.34,368.20 109.18,308.90 157.42,368.20 207.27,368.20 255.51,368.20 305.36,249.59 355.20,190.29 403.44,190.29 453.29,130.99 501.53,308.90 "
     style="stroke-width: 2.67; stroke: #211A1D; stroke-linecap: butt;"
     id="polyline12" />
  <circle
     cx="109.18"
     cy="308.90"
     r="6.54"
     style="stroke-width: 2.13; stroke: #211A1D; fill: #F5F5F5;"
     id="circle14" />
  <circle
     cx="305.36"
     cy="249.59"
     r="7.06"
     style="stroke-width: 2.13; stroke: #211A1D; fill: #F5F5F5;"
     id="circle16" />
  <circle
     cx="501.53"
     cy="308.90"
     r="7.10"
     style="stroke-width: 2.13; stroke: #211A1D; fill: #F5F5F5;"
     id="circle18" />
  <circle
     cx="255.51"
     cy="368.20"
     r="8.53"
     style="stroke-width: 2.13; stroke: #211A1D; fill: #F5F5F5;"
     id="circle20" />
  <circle
     cx="207.27"
     cy="368.20"
     r="5.33"
     style="stroke-width: 2.13; stroke: #211A1D; fill: #F5F5F5;"
     id="circle22" />
  <circle
     cx="59.34"
     cy="368.20"
     r="7.72"
     style="stroke-width: 2.13; stroke: #211A1D; fill: #F5F5F5;"
     id="circle24" />
  <circle
     cx="157.42"
     cy="368.20"
     r="8.46"
     style="stroke-width: 2.13; stroke: #211A1D; fill: #F5F5F5;"
     id="circle26" />
  <circle
     cx="453.29"
     cy="130.99"
     r="7.38"
     style="stroke-width: 2.13; stroke: #211A1D; fill: #F5F5F5;"
     id="circle28" />
  <circle
     cx="403.44"
     cy="190.29"
     r="7.54"
     style="stroke-width: 2.13; stroke: #211A1D; fill: #F5F5F5;"
     id="circle30" />
  <circle
     cx="355.20"
     cy="190.29"
     r="6.96"
     style="stroke-width: 2.13; stroke: #211A1D; fill: #F5F5F5;"
     id="circle32" />
  <polyline
     points="221.45,368.21 221.42,367.32 221.34,366.44 221.20,365.56 221.01,364.69 220.76,363.83 220.46,363.00 220.10,362.18 219.70,361.38 219.24,360.62 218.74,359.88 218.20,359.18 217.61,358.51 216.98,357.88 216.31,357.29 215.61,356.75 214.87,356.25 214.11,355.79 213.31,355.39 212.50,355.03 211.66,354.73 210.80,354.48 209.93,354.29 209.05,354.15 208.17,354.07 207.28,354.04 206.39,354.07 205.50,354.15 204.62,354.29 203.75,354.48 202.90,354.73 202.06,355.03 201.24,355.39 200.45,355.79 199.68,356.25 198.95,356.75 198.24,357.29 197.58,357.88 196.95,358.51 196.36,359.18 195.81,359.88 195.31,360.62 194.86,361.38 194.45,362.18 194.10,363.00 193.80,363.83 193.55,364.69 193.36,365.56 193.22,366.44 193.13,367.32 193.10,368.21 193.13,369.10 193.22,369.99 193.36,370.87 193.55,371.74 193.80,372.59 194.10,373.43 194.45,374.25 194.86,375.04 195.31,375.81 195.81,376.54 196.36,377.25 196.95,377.92 197.58,378.54 198.24,379.13 198.95,379.68 199.68,380.18 200.45,380.63 201.24,381.04 202.06,381.39 202.90,381.69 203.75,381.94 204.62,382.14 205.50,382.27 206.39,382.36 207.28,382.39 208.17,382.36 209.05,382.27 209.93,382.14 210.80,381.94 211.66,381.69 212.50,381.39 213.31,381.04 214.11,380.63 214.87,380.18 215.61,379.68 216.31,379.13 216.98,378.54 217.61,377.92 218.20,377.25 218.74,376.54 219.24,375.81 219.70,375.04 220.10,374.25 220.46,373.43 220.76,372.59 221.01,371.74 221.20,370.87 221.34,369.99 221.42,369.10 221.45,368.21 "
     style="stroke-width: 1.07; stroke: none;"
     id="polyline34" />
  <polyline
     points="269.70,368.21 269.67,367.32 269.59,366.44 269.45,365.56 269.25,364.69 269.00,363.83 268.70,363.00 268.35,362.18 267.94,361.38 267.49,360.62 266.99,359.88 266.44,359.18 265.86,358.51 265.23,357.88 264.56,357.29 263.85,356.75 263.12,356.25 262.35,355.79 261.56,355.39 260.74,355.03 259.90,354.73 259.05,354.48 258.18,354.29 257.30,354.15 256.41,354.07 255.52,354.04 254.63,354.07 253.75,354.15 252.87,354.29 252.00,354.48 251.14,354.73 250.31,355.03 249.49,355.39 248.70,355.79 247.93,356.25 247.19,356.75 246.49,357.29 245.82,357.88 245.19,358.51 244.60,359.18 244.06,359.88 243.56,360.62 243.10,361.38 242.70,362.18 242.35,363.00 242.04,363.83 241.80,364.69 241.60,365.56 241.46,366.44 241.38,367.32 241.35,368.21 241.38,369.10 241.46,369.99 241.60,370.87 241.80,371.74 242.04,372.59 242.35,373.43 242.70,374.25 243.10,375.04 243.56,375.81 244.06,376.54 244.60,377.25 245.19,377.92 245.82,378.54 246.49,379.13 247.19,379.68 247.93,380.18 248.70,380.63 249.49,381.04 250.31,381.39 251.14,381.69 252.00,381.94 252.87,382.14 253.75,382.27 254.63,382.36 255.52,382.39 256.41,382.36 257.30,382.27 258.18,382.14 259.05,381.94 259.90,381.69 260.74,381.39 261.56,381.04 262.35,380.63 263.12,380.18 263.85,379.68 264.56,379.13 265.23,378.54 265.86,377.92 266.44,377.25 266.99,376.54 267.49,375.81 267.94,375.04 268.35,374.25 268.70,373.43 269.00,372.59 269.25,371.74 269.45,370.87 269.59,369.99 269.67,369.10 269.70,368.21 "
     style="stroke-width: 1.07; stroke: none;"
     id="polyline36" />
  <polyline
     points="369.36,190.28 369.34,189.39 369.25,188.51 369.11,187.63 368.92,186.76 368.67,185.90 368.37,185.06 368.01,184.25 367.61,183.45 367.16,182.69 366.66,181.95 366.11,181.25 365.52,180.58 364.89,179.95 364.22,179.36 363.52,178.82 362.78,178.32 362.02,177.86 361.22,177.46 360.41,177.10 359.57,176.80 358.71,176.55 357.85,176.36 356.97,176.22 356.08,176.14 355.19,176.11 354.30,176.14 353.41,176.22 352.53,176.36 351.67,176.55 350.81,176.80 349.97,177.10 349.16,177.46 348.36,177.86 347.60,178.32 346.86,178.82 346.16,179.36 345.49,179.95 344.86,180.58 344.27,181.25 343.72,181.95 343.22,182.69 342.77,183.45 342.37,184.25 342.01,185.06 341.71,185.90 341.46,186.76 341.27,187.63 341.13,188.51 341.04,189.39 341.02,190.28 341.04,191.17 341.13,192.06 341.27,192.94 341.46,193.81 341.71,194.66 342.01,195.50 342.37,196.32 342.77,197.11 343.22,197.88 343.72,198.61 344.27,199.32 344.86,199.98 345.49,200.61 346.16,201.20 346.86,201.75 347.60,202.25 348.36,202.70 349.16,203.11 349.97,203.46 350.81,203.76 351.67,204.01 352.53,204.20 353.41,204.34 354.30,204.43 355.19,204.46 356.08,204.43 356.97,204.34 357.85,204.20 358.71,204.01 359.57,203.76 360.41,203.46 361.22,203.11 362.02,202.70 362.78,202.25 363.52,201.75 364.22,201.20 364.89,200.61 365.52,199.98 366.11,199.32 366.66,198.61 367.16,197.88 367.61,197.11 368.01,196.32 368.37,195.50 368.67,194.66 368.92,193.81 369.11,192.94 369.25,192.06 369.34,191.17 369.36,190.28 "
     style="stroke-width: 1.07; stroke: none;"
     id="polyline38" />
  <polyline
     points="515.72,308.88 515.69,307.99 515.60,307.11 515.46,306.23 515.27,305.36 515.02,304.50 514.72,303.67 514.37,302.85 513.96,302.06 513.51,301.29 513.01,300.55 512.46,299.85 511.87,299.18 511.24,298.55 510.58,297.96 509.87,297.42 509.14,296.92 508.37,296.46 507.58,296.06 506.76,295.71 505.92,295.40 505.07,295.16 504.20,294.96 503.32,294.82 502.43,294.74 501.54,294.71 500.65,294.74 499.77,294.82 498.89,294.96 498.02,295.16 497.16,295.40 496.33,295.71 495.51,296.06 494.71,296.46 493.95,296.92 493.21,297.42 492.51,297.96 491.84,298.55 491.21,299.18 490.62,299.85 490.08,300.55 489.58,301.29 489.12,302.06 488.72,302.85 488.36,303.67 488.06,304.50 487.81,305.36 487.62,306.23 487.48,307.11 487.40,307.99 487.37,308.88 487.40,309.77 487.48,310.66 487.62,311.54 487.81,312.41 488.06,313.26 488.36,314.10 488.72,314.92 489.12,315.71 489.58,316.48 490.08,317.21 490.62,317.92 491.21,318.59 491.84,319.22 492.51,319.80 493.21,320.35 493.95,320.85 494.71,321.30 495.51,321.71 496.33,322.06 497.16,322.36 498.02,322.61 498.89,322.81 499.77,322.95 500.65,323.03 501.54,323.06 502.43,323.03 503.32,322.95 504.20,322.81 505.07,322.61 505.92,322.36 506.76,322.06 507.58,321.71 508.37,321.30 509.14,320.85 509.87,320.35 510.58,319.80 511.24,319.22 511.87,318.59 512.46,317.92 513.01,317.21 513.51,316.48 513.96,315.71 514.37,314.92 514.72,314.10 515.02,313.26 515.27,312.41 515.46,311.54 515.60,310.66 515.69,309.77 515.72,308.88 "
     style="stroke-width: 1.07; stroke: none;"
     id="polyline40" />
  <rect
     x="161.89"
     y="293.57"
     width="90.77"
     height="26.45"
     style="stroke-width: 0.75; stroke: none;"
     id="rect42" />
  <text
     x="167.56"
     y="304.75"
     style="font-size:8px;font-family:'Fira Sans'"
     textLength="79.43"
     lengthAdjust="spacingAndGlyphs"
     id="text44"
     transform="translate(0,4.9849927)">Started reading about</text>
  <text
     x="167.56"
     y="314.35001"
     style="font-size:8px;font-family:'Fira Sans'"
     textLength="30.700001"
     lengthAdjust="spacingAndGlyphs"
     id="text46"
     transform="translate(0,4.9849927)">Stoicism</text>
  <rect
     x="303.71"
     y="347.94"
     width="77.79"
     height="26.45"
     style="stroke-width: 0.75; stroke: none;"
     id="rect48" />
  <text
     x="309.38"
     y="359.12"
     style="font-size: 8.00px; font-family: Fira Sans;"
     textLength="66.45px"
     lengthAdjust="spacingAndGlyphs"
     id="text50">Read the Mistborn</text>
  <text
     x="309.38"
     y="368.72"
     style="font-size: 8.00px; font-family: Fira Sans;"
     textLength="24.53px"
     lengthAdjust="spacingAndGlyphs"
     id="text52">Trilogy</text>
  <rect
     x="295.57"
     y="125.24"
     width="119.24"
     height="16.85"
     style="stroke-width: 0.75; stroke: none;"
     id="rect54" />
  <text
     x="301.23999"
     y="136.42"
     style="font-size:8px;font-family:'Fira Sans'"
     textLength="107.9"
     lengthAdjust="spacingAndGlyphs"
     id="text56"
     transform="translate(0.77591243,5.4863067)">Started reading Percy Jackson</text>
  <rect
     x="428.43"
     y="357.07"
     width="89.54"
     height="16.85"
     style="stroke-width: 0.75; stroke: none;"
     id="rect58" />
  <text
     x="434.10001"
     y="368.25"
     style="font-size:8px;font-family:'Fira Sans'"
     textLength="78.199997"
     lengthAdjust="spacingAndGlyphs"
     id="text60"
     transform="translate(-11.888288,-9.2583181)">Decided to read Sci-fi</text>
  <polyline
     points="252.66,320.02 161.89,320.02 161.89,322.20 191.56,351.87 "
     style="stroke:#211a1d;stroke-width:1.07"
     id="polyline62"
     transform="translate(5.39,6.64)" />
  <polyline
     points="381.50,374.39 303.71,374.39 299.31,369.99 278.09,369.99 "
     style="stroke-width: 1.07; stroke: #211A1D;"
     id="polyline64" />
  <polyline
     points="414.81,142.09 295.57,142.09 305.11,142.09 338.26,175.23 "
     style="stroke:#211a1d;stroke-width:1.07"
     id="polyline66"
     transform="translate(5.46,6.72)" />
  <polyline
     points="428.43,357.07 517.97,357.07 505.92,345.03 505.92,330.87 "
     style="stroke:#211a1d;stroke-width:1.07"
     id="polyline68"
     transform="translate(-6.15,-7.92)" />
  <text
     x="27.90"
     y="371.23"
     style="font-size: 8.80px; fill: #525252; font-family: Fira Sans;"
     textLength="4.39px"
     lengthAdjust="spacingAndGlyphs"
     id="text70">3</text>
  <text
     x="27.61"
     y="311.93"
     style="font-size: 8.80px; fill: #525252; font-family: Fira Sans;"
     textLength="4.68px"
     lengthAdjust="spacingAndGlyphs"
     id="text72">4</text>
  <text
     x="27.89"
     y="252.63"
     style="font-size: 8.80px; fill: #525252; font-family: Fira Sans;"
     textLength="4.41px"
     lengthAdjust="spacingAndGlyphs"
     id="text74">5</text>
  <text
     x="27.61"
     y="193.32"
     style="font-size: 8.80px; fill: #525252; font-family: Fira Sans;"
     textLength="4.69px"
     lengthAdjust="spacingAndGlyphs"
     id="text76">6</text>
  <text
     x="28.39"
     y="134.02"
     style="font-size: 8.80px; fill: #525252; font-family: Fira Sans;"
     textLength="3.91px"
     lengthAdjust="spacingAndGlyphs"
     id="text78">7</text>
  <polyline
     points="59.34,382.80 59.34,380.06 "
     style="stroke-width: 1.07; stroke: #333333; stroke-linecap: butt;"
     id="polyline80" />
  <polyline
     points="109.18,382.80 109.18,380.06 "
     style="stroke-width: 1.07; stroke: #333333; stroke-linecap: butt;"
     id="polyline82" />
  <polyline
     points="157.42,382.80 157.42,380.06 "
     style="stroke-width: 1.07; stroke: #333333; stroke-linecap: butt;"
     id="polyline84" />
  <polyline
     points="207.27,382.80 207.27,380.06 "
     style="stroke-width: 1.07; stroke: #333333; stroke-linecap: butt;"
     id="polyline86" />
  <polyline
     points="255.51,382.80 255.51,380.06 "
     style="stroke-width: 1.07; stroke: #333333; stroke-linecap: butt;"
     id="polyline88" />
  <polyline
     points="305.36,382.80 305.36,380.06 "
     style="stroke-width: 1.07; stroke: #333333; stroke-linecap: butt;"
     id="polyline90" />
  <polyline
     points="355.20,382.80 355.20,380.06 "
     style="stroke-width: 1.07; stroke: #333333; stroke-linecap: butt;"
     id="polyline92" />
  <polyline
     points="403.44,382.80 403.44,380.06 "
     style="stroke-width: 1.07; stroke: #333333; stroke-linecap: butt;"
     id="polyline94" />
  <polyline
     points="453.29,382.80 453.29,380.06 "
     style="stroke-width: 1.07; stroke: #333333; stroke-linecap: butt;"
     id="polyline96" />
  <polyline
     points="501.53,382.80 501.53,380.06 "
     style="stroke-width: 1.07; stroke: #333333; stroke-linecap: butt;"
     id="polyline98" />
  <text
     x="51.86"
     y="391.06"
     style="font-size: 8.80px; fill: #525252; font-family: Fira Sans;"
     textLength="14.96px"
     lengthAdjust="spacingAndGlyphs"
     id="text100">Mar</text>
  <text
     x="50.07"
     y="400.56"
     style="font-size: 8.80px; fill: #525252; font-family: Fira Sans;"
     textLength="18.53px"
     lengthAdjust="spacingAndGlyphs"
     id="text102">2020</text>
  <text
     x="102.40"
     y="391.06"
     style="font-size: 8.80px; fill: #525252; font-family: Fira Sans;"
     textLength="13.57px"
     lengthAdjust="spacingAndGlyphs"
     id="text104">Apr</text>
  <text
     x="149.46"
     y="391.06"
     style="font-size: 8.80px; fill: #525252; font-family: Fira Sans;"
     textLength="15.92px"
     lengthAdjust="spacingAndGlyphs"
     id="text106">May</text>
  <text
     x="200.85"
     y="391.06"
     style="font-size: 8.80px; fill: #525252; font-family: Fira Sans;"
     textLength="12.84px"
     lengthAdjust="spacingAndGlyphs"
     id="text108">Jun</text>
  <text
     x="250.34"
     y="391.06"
     style="font-size: 8.80px; fill: #525252; font-family: Fira Sans;"
     textLength="10.33px"
     lengthAdjust="spacingAndGlyphs"
     id="text110">Jul</text>
  <text
     x="298.02"
     y="391.06"
     style="font-size: 8.80px; fill: #525252; font-family: Fira Sans;"
     textLength="14.68px"
     lengthAdjust="spacingAndGlyphs"
     id="text112">Aug</text>
  <text
     x="347.83"
     y="391.06"
     style="font-size: 8.80px; fill: #525252; font-family: Fira Sans;"
     textLength="14.74px"
     lengthAdjust="spacingAndGlyphs"
     id="text114">Sep</text>
  <text
     x="396.71"
     y="391.06"
     style="font-size: 8.80px; fill: #525252; font-family: Fira Sans;"
     textLength="13.47px"
     lengthAdjust="spacingAndGlyphs"
     id="text116">Oct</text>
  <text
     x="445.55"
     y="391.06"
     style="font-size: 8.80px; fill: #525252; font-family: Fira Sans;"
     textLength="15.48px"
     lengthAdjust="spacingAndGlyphs"
     id="text118">Nov</text>
  <text
     x="494.20"
     y="391.06"
     style="font-size: 8.80px; fill: #525252; font-family: Fira Sans;"
     textLength="14.66px"
     lengthAdjust="spacingAndGlyphs"
     id="text120">Dec</text>
  <text
     transform="translate(22.52,306.60) rotate(-90)"
     style="font-size: 11.00px; fill: #525252; font-family: Fira Sans;"
     textLength="114.02px"
     lengthAdjust="spacingAndGlyphs"
     id="text122">Number of Books Read</text>
  <text
     x="244.65"
     y="77.42"
     style="font-size: 10.00px; fill: #525252; font-family: Fira Sans;"
     textLength="71.57px"
     lengthAdjust="spacingAndGlyphs"
     id="text124">Avg Word Count</text>
  <rect
     x="167.07"
     y="83.47"
     width="17.28"
     height="19.22"
     style="stroke-width: 1.07; stroke: none; fill: #F2F2F2;"
     id="rect126" />
  <circle
     cx="175.71"
     cy="93.08"
     r="5.45"
     style="stroke-width: 2.13; stroke: #211A1D; fill: #F5F5F5;"
     id="circle128" />
  <rect
     x="221.07"
     y="83.47"
     width="17.28"
     height="19.22"
     style="stroke-width: 1.07; stroke: none; fill: #F2F2F2;"
     id="rect130" />
  <circle
     cx="229.71"
     cy="93.08"
     r="7.05"
     style="stroke-width: 2.13; stroke: #211A1D; fill: #F5F5F5;"
     id="circle132" />
  <rect
     x="279.48"
     y="83.47"
     width="17.78"
     height="19.22"
     style="stroke-width: 1.07; stroke: none; fill: #F2F2F2;"
     id="rect134" />
  <circle
     cx="288.37"
     cy="93.08"
     r="7.75"
     style="stroke-width: 2.13; stroke: #211A1D; fill: #F5F5F5;"
     id="circle136" />
  <rect
     x="337.87"
     y="83.47"
     width="19.22"
     height="19.22"
     style="stroke-width: 1.07; stroke: none; fill: #F2F2F2;"
     id="rect138" />
  <circle
     cx="347.48"
     cy="93.08"
     r="8.30"
     style="stroke-width: 2.13; stroke: #211A1D; fill: #F5F5F5;"
     id="circle140" />
  <text
     x="189.33"
     y="96.18"
     style="font-size: 9.00px; fill: #525252; font-family: Fira Sans;"
     textLength="26.76px"
     lengthAdjust="spacingAndGlyphs"
     id="text142">50,000</text>
  <text
     x="243.33"
     y="96.18"
     style="font-size: 9.00px; fill: #525252; font-family: Fira Sans;"
     textLength="31.17px"
     lengthAdjust="spacingAndGlyphs"
     id="text144">100,000</text>
  <text
     x="302.24"
     y="96.18"
     style="font-size: 9.00px; fill: #525252; font-family: Fira Sans;"
     textLength="30.65px"
     lengthAdjust="spacingAndGlyphs"
     id="text146">150,000</text>
  <text
     x="362.07"
     y="96.18"
     style="font-size: 9.00px; fill: #525252; font-family: Fira Sans;"
     textLength="31.72px"
     lengthAdjust="spacingAndGlyphs"
     id="text148">200,000</text>
  <text
     x="14.94"
     y="56.17"
     style="font-size: 11.00px; fill: #525252; font-family: Fira Sans;"
     textLength="241.32px"
     lengthAdjust="spacingAndGlyphs"
     id="text150">Started reading in March after lockdown started.</text>
  <text
     x="14.94"
     y="38.87"
     style="font-size: 20.00px; fill: #211A1D; font-family: IBM Plex Sans;"
     textLength="252.42px"
     lengthAdjust="spacingAndGlyphs"
     id="text152">My Reading Timeline (2020)</text>
  <text
     x="380.16"
     y="413.46"
     style="font-size: 8.00px; fill: #525252; font-family: Fira Sans;"
     textLength="47.95px"
     lengthAdjust="spacingAndGlyphs"
     id="text154">Visualization:</text>
  <text
     x="430.23"
     y="413.46"
     style="font-size: 8.00px; font-weight: bold; fill: #525252; font-family: Fira Sans;"
     textLength="36.14px"
     lengthAdjust="spacingAndGlyphs"
     id="text156">@luisfreii</text>
  <text
     x="468.49"
     y="413.46"
     style="font-size: 8.00px; fill: #525252; font-family: Fira Sans;"
     textLength="3.22px"
     lengthAdjust="spacingAndGlyphs"
     id="text158">|</text>
  <text
     x="473.84"
     y="413.46"
     style="font-size: 8.00px; fill: #525252; font-family: Fira Sans;"
     textLength="19.61px"
     lengthAdjust="spacingAndGlyphs"
     id="text160">Made</text>
  <text
     x="495.57"
     y="413.46"
     style="font-size: 8.00px; fill: #525252; font-family: Fira Sans;"
     textLength="9.29px"
     lengthAdjust="spacingAndGlyphs"
     id="text162">up</text>
  <text
     x="506.97"
     y="413.46"
     style="font-size: 8.00px; fill: #525252; font-family: Fira Sans;"
     textLength="16.66px"
     lengthAdjust="spacingAndGlyphs"
     id="text164">Data</text>
</svg>
